<svg id="Group_4455" data-name="Group 4455" xmlns="http://www.w3.org/2000/svg" xmlns:xlink="http://www.w3.org/1999/xlink" width="210.848" height="256.277" viewBox="0 0 210.848 256.277">
  <defs>
    <clipPath id="clip-path">
      <rect id="Rectangle_1856" data-name="Rectangle 1856" width="210.848" height="256.278" fill="none"/>
    </clipPath>
  </defs>
  <g id="Group_4400" data-name="Group 4400" clip-path="url(#clip-path)">
    <path id="Path_3956" data-name="Path 3956" d="M6.473,95.253a95.252,95.252,0,1,1,95.253,95.253A95.254,95.254,0,0,1,6.473,95.253" transform="translate(3.698)" fill="#f1cc45"/>
    <path id="Path_3957" data-name="Path 3957" d="M94.455,82.92H64.7c-8.759,0-16.207-7.544-17.535-17.76L44.434,44.172c-1.647-12.678,6.666-24.1,17.535-24.1H97.42c10.962,0,19.3,11.614,17.5,24.373l-2.965,20.989c-1.425,10.093-8.825,17.491-17.5,17.491" transform="translate(25.269 11.466)" fill="#323232"/>
    <path id="Path_3958" data-name="Path 3958" d="M82.989,50.5c-3.636,5.842-3.286,12.761.786,15.456s10.319.143,13.955-5.7S101.016,47.5,96.946,44.8s-10.319-.143-13.957,5.7" transform="translate(45.981 24.986)" fill="#f4f4ff"/>
    <path id="Path_3959" data-name="Path 3959" d="M82.989,50.5c-3.636,5.842-3.286,12.761.786,15.456s10.319.143,13.955-5.7S101.016,47.5,96.946,44.8,86.627,44.662,82.989,50.5Z" transform="translate(45.981 24.986)" fill="none" stroke="#323232" stroke-linecap="round" stroke-linejoin="round" stroke-width="0.501"/>
    <path id="Path_3960" data-name="Path 3960" d="M89.008,46.2a5.424,5.424,0,0,1,1.417,9.285" transform="translate(50.856 26.396)" fill="none" stroke="#323232" stroke-linecap="round" stroke-linejoin="round" stroke-width="0.501"/>
    <path id="Path_3961" data-name="Path 3961" d="M57.1,50.5c3.636,5.842,3.286,12.761-.786,15.456S46,66.1,42.362,60.26,39.076,47.5,43.146,44.8s10.319-.143,13.957,5.7" transform="translate(22.768 24.986)" fill="#f4f4ff"/>
    <path id="Path_3962" data-name="Path 3962" d="M57.1,50.5c3.636,5.842,3.286,12.761-.786,15.456S46,66.1,42.362,60.26,39.076,47.5,43.146,44.8,53.465,44.662,57.1,50.5Z" transform="translate(22.768 24.986)" fill="none" stroke="#323232" stroke-linecap="round" stroke-linejoin="round" stroke-width="0.501"/>
    <path id="Path_3963" data-name="Path 3963" d="M45.149,46.2a5.424,5.424,0,0,0-1.417,9.285" transform="translate(23.828 26.396)" fill="none" stroke="#323232" stroke-linecap="round" stroke-linejoin="round" stroke-width="0.501"/>
    <path id="Path_3964" data-name="Path 3964" d="M92.9,110.62a18.667,18.667,0,1,1-37.323.632c0-.211,0-.421.017-.632L57.665,82.8l.526-7.044,1.036-13.822H89.245L90.9,83.783l1.177,15.894Z" transform="translate(31.754 35.387)" fill="#f4f4ff"/>
    <path id="Path_3965" data-name="Path 3965" d="M92.9,110.62a18.667,18.667,0,1,1-37.323.632c0-.211,0-.421.017-.632L57.665,82.8l.526-7.044,1.036-13.822H89.245L90.9,83.783l1.177,15.894Z" transform="translate(31.754 35.387)" fill="none" stroke="#323232" stroke-linecap="round" stroke-linejoin="round" stroke-width="0.559"/>
    <path id="Path_3966" data-name="Path 3966" d="M91.122,99.677c-9.854.7-20.707-4.2-28.156-13.716A37.368,37.368,0,0,1,57.24,75.755l1.037-13.822H88.293l1.652,21.85Z" transform="translate(32.705 35.387)" fill="#323232"/>
    <path id="Path_3967" data-name="Path 3967" d="M111.9,75.45a29.6,29.6,0,0,1-9.156,21.413l-8.921,8.008a14.282,14.282,0,0,1-10.542,4.642H74.976A14.368,14.368,0,0,1,64.5,104.965l-9.109-8.086a29.581,29.581,0,0,1-9.329-21.57l.141-2.47.819-14.16.613-10.5A31.468,31.468,0,0,1,78.972,16.591a31.112,31.112,0,0,1,22.167,9.252,31.568,31.568,0,0,1,9.189,22.34l.691,11.942.677,11.784Z" transform="translate(26.316 9.48)" fill="#f4f4ff"/>
    <path id="Path_3968" data-name="Path 3968" d="M111.9,75.45a29.6,29.6,0,0,1-9.156,21.413l-8.921,8.008a14.282,14.282,0,0,1-10.542,4.642H74.976A14.368,14.368,0,0,1,64.5,104.965l-9.109-8.086a29.581,29.581,0,0,1-9.329-21.57l.141-2.47.819-14.16.613-10.5A31.468,31.468,0,0,1,78.972,16.591a31.112,31.112,0,0,1,22.167,9.252,31.568,31.568,0,0,1,9.189,22.34l.691,11.942.677,11.784Z" transform="translate(26.316 9.48)" fill="none" stroke="#323232" stroke-linecap="round" stroke-linejoin="round" stroke-width="0.501"/>
    <path id="Path_3969" data-name="Path 3969" d="M110.671,60.126H109.7a51.365,51.365,0,0,1-8.528-22.672c-.613-5.05-7.788-6.749-12.854-6.2a13.218,13.218,0,0,1-10.431,5.822c-4.137.126-8.2-2.643-10.682-5.963-5.052-.55-12.257,1.149-12.871,6.2a51.3,51.3,0,0,1-7.662,21.366l.614-10.5A31.469,31.469,0,0,1,78.623,16.591a31.115,31.115,0,0,1,22.167,9.252,31.569,31.569,0,0,1,9.188,22.34Z" transform="translate(26.665 9.48)" fill="#323232"/>
    <path id="Path_3970" data-name="Path 3970" d="M111.9,55.335l-.2-3.54c-2.454,3.242-5.459,7.206-7.583,9.551-3.069,3.366-8.339,3.73-13.594,3.6a14.258,14.258,0,0,1-5-1.494,18.366,18.366,0,0,0-14.805,0,14.226,14.226,0,0,1-5.019,1.494c-5.255.126-10.525-.239-13.577-3.6A57.491,57.491,0,0,1,46.2,52.724l-.141,2.47a29.368,29.368,0,0,0,.325,4.131c-.061-.1-.124-.206-.184-.308l-.141,2.47a29.578,29.578,0,0,0,9.329,21.57L64.5,91.144a14.368,14.368,0,0,0,10.479,4.548h8.306a14.282,14.282,0,0,0,10.542-4.642l8.921-8.008A29.6,29.6,0,0,0,111.9,61.629l-.179-3.11a29.79,29.79,0,0,0,.179-3.184" transform="translate(26.316 29.594)" fill="#323232"/>
    <path id="Path_3971" data-name="Path 3971" d="M63.48,82.719c6.958-.456,14.98.959,20.2-4.771q2.176-1.841,4.431-3.6c-1.285,1.34-2.762,2.8-4.031,4-5.016,6.2-13.551,4.934-20.6,4.367" transform="translate(36.27 42.483)" fill="#f4f4ff"/>
    <path id="Path_3972" data-name="Path 3972" d="M86.8,65.381a20.515,20.515,0,0,1-15.135,6.351A20.656,20.656,0,0,1,57.992,65.6h.882a12.979,12.979,0,0,0,5.019-1.7,16.354,16.354,0,0,1,14.805,0,12.985,12.985,0,0,0,5,1.7,15.057,15.057,0,0,0,3.1-.215" transform="translate(33.135 35.496)" fill="#f4f4ff"/>
    <path id="Path_3973" data-name="Path 3973" d="M68.222,67a8.515,8.515,0,0,1,3.294,2.175,3.345,3.345,0,0,1,.91,2.176,3.28,3.28,0,0,1-.9,2.175,8.461,8.461,0,0,1-3.3,2.175,8.461,8.461,0,0,1-3.3-2.175,3.28,3.28,0,0,1-.9-2.175,3.345,3.345,0,0,1,.91-2.176A8.515,8.515,0,0,1,68.222,67" transform="translate(36.578 38.281)" fill="#323232"/>
    <path id="Path_3974" data-name="Path 3974" d="M71.773,41.4a18.366,18.366,0,0,1,4.749-1.933,18.727,18.727,0,0,1,5.33-.616,12.636,12.636,0,0,1,5.432,1.366,8.324,8.324,0,0,1,3.8,3.856,16.531,16.531,0,0,0-4.684-.9,20.2,20.2,0,0,0-4.271.394c-2.838.506-5.718,1.49-8.962,1.893a2.194,2.194,0,0,1-1.4-4.062" transform="translate(40.397 22.19)" fill="#323232"/>
    <path id="Path_3975" data-name="Path 3975" d="M68.236,45.458c-3.243-.4-6.125-1.388-8.962-1.894A20.2,20.2,0,0,0,55,43.17a16.531,16.531,0,0,0-4.684.9,8.317,8.317,0,0,1,3.8-3.856,12.614,12.614,0,0,1,5.432-1.366,18.727,18.727,0,0,1,5.33.614A18.369,18.369,0,0,1,69.631,41.4a2.194,2.194,0,0,1-1.4,4.062" transform="translate(28.751 22.19)" fill="#323232"/>
    <path id="Path_3976" data-name="Path 3976" d="M71.819,51.25c3.482-6.857,12.764-8.517,17.547-2.142a.388.388,0,0,1-.4.559c-1.678-.292-2.761-1.582-4.346-2.033-4.656-1.815-9.248.432-12.279,4.056a.347.347,0,0,1-.526-.44" transform="translate(41.002 25.777)" fill="#323232"/>
    <path id="Path_3977" data-name="Path 3977" d="M75.446,48.392a2.893,2.893,0,1,1,2.678,3.094,2.894,2.894,0,0,1-2.678-3.094" transform="translate(43.103 26.116)" fill="#323232"/>
    <path id="Path_3978" data-name="Path 3978" d="M72.178,49.179a9.352,9.352,0,0,0,4.709,1.042" transform="translate(41.24 28.099)" fill="none" stroke="#323232" stroke-linecap="round" stroke-linejoin="round" stroke-width="0.501"/>
    <path id="Path_3979" data-name="Path 3979" d="M71.917,48.451a10.279,10.279,0,0,1,6.845-4.111" transform="translate(41.091 25.334)" fill="none" stroke="#323232" stroke-linecap="round" stroke-linejoin="round" stroke-width="0.501"/>
    <path id="Path_3980" data-name="Path 3980" d="M69.019,51.674C65.4,47.261,59.77,45.409,54.7,48.606c-.434.3-2.9,1.875-2.7.486,3.657-5.363,12.469-5.193,16.136.082.479.685.959,1.359,1.411,2.06a.346.346,0,0,1-.526.44" transform="translate(29.703 25.793)" fill="#323232"/>
    <path id="Path_3981" data-name="Path 3981" d="M61.617,48.392a2.893,2.893,0,1,0-2.678,3.094,2.894,2.894,0,0,0,2.678-3.094" transform="translate(31.904 26.116)" fill="#323232"/>
    <path id="Path_3982" data-name="Path 3982" d="M64.493,49.179a9.352,9.352,0,0,1-4.709,1.042" transform="translate(34.159 28.099)" fill="none" stroke="#323232" stroke-linecap="round" stroke-linejoin="round" stroke-width="0.501"/>
    <path id="Path_3983" data-name="Path 3983" d="M65.531,48.451a10.279,10.279,0,0,0-6.845-4.111" transform="translate(33.531 25.334)" fill="none" stroke="#323232" stroke-linecap="round" stroke-linejoin="round" stroke-width="0.501"/>
    <line id="Line_74" data-name="Line 74" y1="14.065" transform="translate(105.919 73.736)" fill="none" stroke="#323232" stroke-linecap="round" stroke-linejoin="round" stroke-width="0.462"/>
    <path id="Path_3984" data-name="Path 3984" d="M64.3,57.426l2.414,1.017a6.218,6.218,0,0,0,4.829,0l2.415-1.017" transform="translate(36.737 32.811)" fill="none" stroke="#323232" stroke-linecap="round" stroke-linejoin="round" stroke-width="0.462"/>
    <path id="Path_3985" data-name="Path 3985" d="M68.636,65.271a16.4,16.4,0,0,0,8.555-2.058" transform="translate(39.216 36.117)" fill="none" stroke="#323232" stroke-linecap="round" stroke-linejoin="round" stroke-width="0.418"/>
    <path id="Path_3986" data-name="Path 3986" d="M68.18,65.351a16.4,16.4,0,0,1-8.555-2.058" transform="translate(34.068 36.164)" fill="none" stroke="#323232" stroke-linecap="round" stroke-linejoin="round" stroke-width="0.418"/>
    <path id="Path_3987" data-name="Path 3987" d="M65.069,64.649a4.8,4.8,0,0,0,5.605-.127" transform="translate(37.178 36.866)" fill="none" stroke="#323232" stroke-linecap="round" stroke-linejoin="round" stroke-width="0.418"/>
    <path id="Path_3988" data-name="Path 3988" d="M66.905,61.228a4.985,4.985,0,0,1,3.24-2.539,8.476,8.476,0,0,1,3.809-.063,28.108,28.108,0,0,1,5.5,2.073l1.537.665a3.777,3.777,0,0,0,1.515.372c1.381.107,3.413-.591,5.995-.83a10.852,10.852,0,0,1-3.415,7.609,7.335,7.335,0,0,1-4.26,1.8,8.564,8.564,0,0,1-4.254-.8A15.412,15.412,0,0,1,71.4,65.389c-.624-.715-1.2-1.422-1.859-2.139a8.156,8.156,0,0,0-2.637-2.022" transform="translate(38.227 33.391)" fill="#323232"/>
    <path id="Path_3989" data-name="Path 3989" d="M74.765,61.228a8.156,8.156,0,0,0-2.637,2.022c-.655.717-1.235,1.424-1.859,2.139A15.412,15.412,0,0,1,65.1,69.511a8.564,8.564,0,0,1-4.254.8,7.334,7.334,0,0,1-4.26-1.8,10.852,10.852,0,0,1-3.415-7.609c2.582.239,4.614.937,5.995.83a3.784,3.784,0,0,0,1.515-.372l1.537-.665a28.068,28.068,0,0,1,5.5-2.073,8.476,8.476,0,0,1,3.809.063,4.985,4.985,0,0,1,3.24,2.539" transform="translate(30.381 33.391)" fill="#323232"/>
    <path id="Path_3990" data-name="Path 3990" d="M123.772,147.575c-14.326,6.465-27.406,8.457-29.213,4.45s8.341-12.494,22.667-18.959,27.4-8.457,29.213-4.45-8.341,12.494-22.667,18.959" transform="translate(53.909 72.305)" fill="#323232"/>
    <path id="Path_3991" data-name="Path 3991" d="M119.468,197.288,112.762,181l-5.369-13.053-4.527-11.012L92.92,132.763c-5.237-12.715-.09-26.8,11.2-30.672a18.084,18.084,0,0,1,5.993-.965c.185,0,.369,0,.555.022,8.757.316,17.219,6.817,20.608,16.746l8.05,23.531,3.606,10.552,15.572,45.6" transform="translate(51.918 57.78)" fill="#f4f4ff"/>
    <path id="Path_3992" data-name="Path 3992" d="M119.468,197.288,112.762,181l-5.369-13.053-4.527-11.012L92.92,132.763c-5.237-12.715-.09-26.8,11.2-30.672a18.084,18.084,0,0,1,5.993-.965c.185,0,.369,0,.555.022,8.757.316,17.219,6.817,20.608,16.746l8.05,23.531,3.606,10.552,15.572,45.6" transform="translate(51.918 57.78)" fill="none" stroke="#323232" stroke-linecap="round" stroke-linejoin="round" stroke-width="0.535"/>
    <path id="Path_3993" data-name="Path 3993" d="M148.372,132.461c-2.64-3.345-15.2-1.245-28.886,4.926-14.342,6.474-24.5,14.964-22.664,18.982a.876.876,0,0,0,.151.236l-.151.068-6.406-15c2.858-4.574,11.619-10.846,22.849-15.907,11.367-5.127,21.976-7.566,27.238-6.59Z" transform="translate(51.66 67.974)" fill="#f4f4ff"/>
    <path id="Path_3994" data-name="Path 3994" d="M148.372,132.461c-2.64-3.345-15.2-1.245-28.886,4.926-14.342,6.474-24.5,14.964-22.664,18.982a.876.876,0,0,0,.151.236l-.151.068-6.406-15c2.858-4.574,11.619-10.846,22.849-15.907,11.367-5.127,21.976-7.566,27.238-6.59Z" transform="translate(51.66 67.974)" fill="none" stroke="#323232" stroke-linecap="round" stroke-linejoin="round" stroke-width="0.501"/>
    <path id="Path_3995" data-name="Path 3995" d="M144.775,132.594c-5.263-.976-15.872,1.463-27.238,6.59-11.232,5.061-19.991,11.333-22.849,15.907L85.255,132.98c-6.2-14.56.5-31.173,14.611-36.1a24.332,24.332,0,0,1,8.105-1.4c9.667,0,18.932,5.734,23.69,15.014Z" transform="translate(47.387 54.558)" fill="#323232"/>
    <path id="Path_3996" data-name="Path 3996" d="M29.425,147.575c14.326,6.465,27.406,8.457,29.213,4.45S50.3,139.531,35.971,133.066s-27.4-8.457-29.213-4.45S15.1,141.11,29.425,147.575" transform="translate(3.742 72.305)" fill="#323232"/>
    <path id="Path_3997" data-name="Path 3997" d="M39.308,197.288,46.014,181l5.369-13.053,4.527-11.012,9.945-24.168c5.237-12.715.09-26.8-11.2-30.672a18.084,18.084,0,0,0-5.993-.965c-.185,0-.369,0-.555.022-8.757.316-17.219,6.817-20.61,16.746l-8.049,23.531-3.606,10.552L.267,197.574" transform="translate(0.153 57.78)" fill="#f4f4ff"/>
    <path id="Path_3998" data-name="Path 3998" d="M39.308,197.288,46.014,181l5.369-13.053,4.527-11.012,9.945-24.168c5.237-12.715.09-26.8-11.2-30.672a18.084,18.084,0,0,0-5.993-.965c-.185,0-.369,0-.555.022-8.757.316-17.219,6.817-20.61,16.746l-8.049,23.531-3.606,10.552L.267,197.574" transform="translate(0.153 57.78)" fill="none" stroke="#323232" stroke-linecap="round" stroke-linejoin="round" stroke-width="0.535"/>
    <path id="Path_3999" data-name="Path 3999" d="M6.883,132.461c2.64-3.345,15.2-1.245,28.886,4.926,14.342,6.474,24.5,14.964,22.664,18.982a.875.875,0,0,1-.151.236l.151.068,6.406-15c-2.858-4.574-11.619-10.846-22.849-15.907-11.367-5.127-21.976-7.566-27.238-6.59Z" transform="translate(3.933 67.974)" fill="#f4f4ff"/>
    <path id="Path_4000" data-name="Path 4000" d="M6.883,132.461c2.64-3.345,15.2-1.245,28.886,4.926,14.342,6.474,24.5,14.964,22.664,18.982a.875.875,0,0,1-.151.236l.151.068,6.406-15c-2.858-4.574-11.619-10.846-22.849-15.907-11.367-5.127-21.976-7.566-27.238-6.59Z" transform="translate(3.933 67.974)" fill="none" stroke="#323232" stroke-linecap="round" stroke-linejoin="round" stroke-width="0.501"/>
    <path id="Path_4001" data-name="Path 4001" d="M11.891,132.594c5.263-.976,15.872,1.463,27.238,6.59,11.232,5.061,19.991,11.333,22.849,15.907l9.433-22.111c6.2-14.56-.5-31.173-14.611-36.1a24.332,24.332,0,0,0-8.105-1.4c-9.667,0-18.932,5.734-23.69,15.014Z" transform="translate(6.794 54.558)" fill="#323232"/>
    <path id="Path_4002" data-name="Path 4002" d="M148.9,205.9H29l.622-17.571.437-12.676.555-15.571L32.4,109.809l.269-7.481,3.867-1.4,22.48-8.121,4.337-1.564,2.153-.79,5.616-3.022h34.82l6.306,2.9,2.135.773,4.339,1.564,23.135,8.357,3.564,1.295.253,7.5.957,28.314.724,21.639.52,15.654v.083l.471,14.141Z" transform="translate(16.569 49.958)" fill="#f4f4ff"/>
    <path id="Path_4003" data-name="Path 4003" d="M148.9,205.9H29l.622-17.571.437-12.676.555-15.571L32.4,109.809l.269-7.481,3.867-1.4,22.48-8.121,4.337-1.564,2.153-.79,5.616-3.022h34.82l6.306,2.9,2.135.773,4.339,1.564,23.135,8.357,3.564,1.295.253,7.5.957,28.314.724,21.639.52,15.654v.083l.471,14.141Z" transform="translate(16.569 49.958)" fill="none" stroke="#323232" stroke-linecap="round" stroke-linejoin="round" stroke-width="0.535"/>
    <path id="Path_4004" data-name="Path 4004" d="M94.107,87.145l4.7,3.242,2.047.737a24.8,24.8,0,0,1-49.179.13l2.085-.757,4.934-3.782" transform="translate(29.524 49.546)" fill="#f4f4ff"/>
    <path id="Path_4005" data-name="Path 4005" d="M94.107,87.145l4.7,3.242,2.047.737a24.8,24.8,0,0,1-49.179.13l2.085-.757,4.934-3.782" transform="translate(29.524 49.546)" fill="none" stroke="#323232" stroke-linecap="round" stroke-linejoin="round" stroke-width="0.516"/>
    <line id="Line_75" data-name="Line 75" y2="108.795" transform="translate(65.452 146.539)" fill="none" stroke="#323232" stroke-linecap="round" stroke-linejoin="round" stroke-width="0.462"/>
    <line id="Line_76" data-name="Line 76" y2="102.255" transform="translate(86.317 153.079)" fill="none" stroke="#323232" stroke-linecap="round" stroke-linejoin="round" stroke-width="0.462"/>
    <line id="Line_77" data-name="Line 77" x1="0.005" y2="92.847" transform="translate(105.692 162.487)" fill="none" stroke="#323232" stroke-linecap="round" stroke-linejoin="round" stroke-width="0.462"/>
    <line id="Line_78" data-name="Line 78" y2="104.067" transform="translate(126.557 151.266)" fill="none" stroke="#323232" stroke-linecap="round" stroke-linejoin="round" stroke-width="0.462"/>
    <line id="Line_79" data-name="Line 79" y2="108.795" transform="translate(145.931 146.539)" fill="none" stroke="#323232" stroke-linecap="round" stroke-linejoin="round" stroke-width="0.462"/>
  </g>
</svg>
