<svg xmlns="http://www.w3.org/2000/svg" xmlns:xlink="http://www.w3.org/1999/xlink" width="200.448" height="242.008" viewBox="0 0 200.448 242.008">
  <defs>
    <clipPath id="clip-path">
      <rect id="Rectangle_1857" data-name="Rectangle 1857" width="200.448" height="242.008" fill="none"/>
    </clipPath>
  </defs>
  <g id="Group_4454" data-name="Group 4454" transform="translate(-24 63)">
    <g id="Group_4402" data-name="Group 4402" transform="translate(24 -63)" clip-path="url(#clip-path)">
      <path id="Path_4006" data-name="Path 4006" d="M2.782,96a95.826,95.826,0,1,1,95.827,95.827A95.828,95.828,0,0,1,2.782,96" transform="translate(1.616 0.103)" fill="#434ffa"/>
      <path id="Path_4007" data-name="Path 4007" d="M121.711,60.589c-6.069-8.8-16.567-14-19.093-24.914-1.078-4.657-.451-9.607-.92-14.4C100.564,9.686,92.646.593,82.737.027,82.545.016,82.35.008,82.154,0,81.637-.008,81.12,0,80.6.036,80.085,0,79.568-.008,79.051,0c-.194,0-.39.011-.583.022C68.559.593,60.64,9.686,59.507,21.276c-.47,4.792.158,9.741-.92,14.4C56.061,46.59,45.563,51.785,39.494,60.589c-5.767,8.366-7.213,20.511-3.622,30.4,2.808,7.732,8.5,14.659,7.95,23.034-.4,6.021-4.063,11.276-4.32,17.309-.346,8.048,6.1,15.119,12.966,15.683s49.4.564,56.27,0,13.312-7.635,12.966-15.683c-.258-6.032-3.922-11.287-4.32-17.309-.553-8.375,5.142-15.3,7.95-23.034,3.592-9.893,2.145-22.038-3.622-30.4" transform="translate(19.701 0)" fill="#323232"/>
      <path id="Path_4008" data-name="Path 4008" d="M65.385,2.191c9.891-1.116,19.882,7.631,21.759,19.047.849,5.168.218,10.626,1.575,15.642,3.061,11.327,14.879,16.456,19.117,27.252,2.6,6.633,1.875,14.6-.839,21.172S99.776,97.223,94.9,101.781" transform="translate(37.978 1.217)" fill="none" stroke="#323232" stroke-linecap="round" stroke-linejoin="round" stroke-width="0.462"/>
      <path id="Path_4009" data-name="Path 4009" d="M71.033,24.459c15.38,16.423,24.323,40.79,23.91,65.145-.068,4-.345,8.182,1.089,11.81,1.163,2.947,3.329,5.179,4.773,7.95,3.871,7.439,1.108,18.463-5.585,22.279" transform="translate(41.258 14.207)" fill="none" stroke="#323232" stroke-linecap="round" stroke-linejoin="round" stroke-width="0.462"/>
      <path id="Path_4010" data-name="Path 4010" d="M60.878,17.635l-3.353-3.121c-3.275-3.051-.643-7.125,5-7.645,2.09-.191,4.167-.315,5.947-.294,2.183.027,4.376.147,6.535.357,6.053.588,9.014,5.131,5.362,8.111l-3.824,3.121a9.856,9.856,0,0,1-6.3,1.843l-2.789-.06a10.166,10.166,0,0,1-6.572-2.313" transform="translate(32.581 3.818)" fill="#f4f4ff"/>
      <path id="Path_4011" data-name="Path 4011" d="M48.648,22.759c6.524-8.593,18.241-13.771,28.744-11.7A31.63,31.63,0,0,1,98.134,24.679c-5.4-6.154-12.821-10.84-20.975-12.09-10.408-1.851-21.191,2.8-28.512,10.171" transform="translate(28.256 6.16)" fill="#f4f4ff"/>
      <path id="Path_4012" data-name="Path 4012" d="M88.466,107.694a18.1,18.1,0,1,1-36.169.617c0-.206,0-.427.016-.617L54.32,80.077l.253-3.557.443-6.023.822-11.145H84.925l1.3,17.8.3,3.889.964,13.326Z" transform="translate(30.376 34.474)" fill="#f4f4ff"/>
      <path id="Path_4013" data-name="Path 4013" d="M88.466,107.694a18.1,18.1,0,1,1-36.169.617c0-.206,0-.427.016-.617L54.32,80.077l.253-3.557.443-6.023.822-11.145H84.925l1.3,17.8.3,3.889.964,13.326Z" transform="translate(30.376 34.474)" fill="none" stroke="#323232" stroke-miterlimit="10" stroke-width="0.5"/>
      <path id="Path_4014" data-name="Path 4014" d="M86.487,94.367C77.318,95.49,66.98,91.079,59.977,82.132A33.674,33.674,0,0,1,54.017,70.5l.822-11.145H83.926l1.3,17.8.3,3.889Z" transform="translate(31.375 34.474)" fill="#323232"/>
      <path id="Path_4015" data-name="Path 4015" d="M80.695,44.339c-3.655,5.87-3.3,12.822.789,15.53s10.369.144,14.024-5.726,3.3-12.822-.789-15.529-10.369-.145-14.024,5.724" transform="translate(45.403 21.802)" fill="#f4f4ff"/>
      <path id="Path_4016" data-name="Path 4016" d="M80.695,44.339c-3.655,5.87-3.3,12.822.789,15.53s10.369.144,14.024-5.726,3.3-12.822-.789-15.529S84.35,38.469,80.695,44.339Z" transform="translate(45.403 21.802)" fill="none" stroke="#323232" stroke-miterlimit="10" stroke-width="0.5"/>
      <path id="Path_4017" data-name="Path 4017" d="M86.691,40a5.45,5.45,0,0,1,1.424,9.33" transform="translate(50.353 23.233)" fill="none" stroke="#323232" stroke-linecap="round" stroke-linejoin="round" stroke-width="0.5"/>
      <path id="Path_4018" data-name="Path 4018" d="M54.93,44.339c3.653,5.87,3.3,12.822-.789,15.53s-10.37.144-14.025-5.726-3.3-12.822.789-15.529,10.37-.145,14.025,5.724" transform="translate(21.835 21.802)" fill="#f4f4ff"/>
      <path id="Path_4019" data-name="Path 4019" d="M54.93,44.339c3.653,5.87,3.3,12.822-.789,15.53s-10.37.144-14.025-5.726-3.3-12.822.789-15.529S51.275,38.469,54.93,44.339Z" transform="translate(21.835 21.802)" fill="none" stroke="#323232" stroke-miterlimit="10" stroke-width="0.5"/>
      <path id="Path_4020" data-name="Path 4020" d="M42.908,40a5.45,5.45,0,0,0-1.424,9.33" transform="translate(22.91 23.233)" fill="none" stroke="#323232" stroke-linecap="round" stroke-linejoin="round" stroke-width="0.5"/>
      <path id="Path_4021" data-name="Path 4021" d="M110.748,51.242c0,.553,0,1.091-.032,1.612-.063,1.581-.19,3.177-.4,4.727l-.221,2.213-.095,1.2-.063.711-.095,1.028c-.095,1.059-.158,2.1-.221,3.146-.016.269-.032.522-.047.79-.032.4-.047.79-.063,1.186-.158,2.624-.3,5.233-.648,7.825,0,.047-.016.095-.016.126-.079.49-.158,1-.253,1.486-.095.537-.174,1.059-.316,1.581-.174.79-.379,1.565-.617,2.371-.079.285-.174.553-.269.854-.19.569-.411,1.154-.648,1.739a38.158,38.158,0,0,1-2.2,4.505,50.105,50.105,0,0,1-14.386,15.571.1.1,0,0,1-.079.063c-.664.474-1.328.9-1.976,1.3a21.5,21.5,0,0,1-21.31.775,27.807,27.807,0,0,1-4.11-2.514.063.063,0,0,1-.063-.032,47.507,47.507,0,0,1-13.153-15.16c-.253-.427-.474-.838-.711-1.265-.111-.221-.221-.458-.332-.68-.19-.364-.364-.759-.569-1.154-.537-1.028-1.012-2.1-1.439-3.146-.111-.3-.253-.585-.348-.885a49.794,49.794,0,0,1-2.545-13.532c-.047-.458-.079-.933-.126-1.407,0-.253-.032-.506-.047-.759-.063-.806-.126-1.628-.19-2.419l-.19-2.166c-.047-.237-.079-.474-.111-.7a6.844,6.844,0,0,1-.126-.79c-.174-.98-.3-1.976-.4-3-.047-.458-.095-.933-.126-1.407q-.142-1.85-.142-3.794c0-.142,0-.3.016-.458,0-1.107.047-2.213.142-3.288.063-.933.174-1.85.316-2.735a43.1,43.1,0,0,1,5.074-15.065c.648-1.122,1.328-2.2,2.055-3.241A36.135,36.135,0,0,1,58.439,17.6c.237-.19.49-.364.727-.522.3-.206.6-.411.9-.6a33.874,33.874,0,0,1,3.652-1.96,29.621,29.621,0,0,1,17.4-2.419c.285.032.569.095.854.142a29.646,29.646,0,0,1,6.829,2.166q1.043.451,2.039,1A29.98,29.98,0,0,1,93.66,17.08c.063.047.158.111.221.158a33.144,33.144,0,0,1,2.83,2.134,36.893,36.893,0,0,1,7.114,8.094q.783,1.186,1.47,2.419c.158.237.269.474.427.743a43.483,43.483,0,0,1,4.537,14.022c0,.032.032.063.032.111.126.885.221,1.8.3,2.735.095,1.075.142,2.182.142,3.288.016.158.016.316.016.458" transform="translate(24.44 6.778)" fill="#f4f4ff"/>
      <path id="Path_4022" data-name="Path 4022" d="M110.748,51.242c0,.553,0,1.091-.032,1.612-.063,1.581-.19,3.177-.4,4.727l-.221,2.213-.095,1.2-.063.711-.095,1.028c-.095,1.059-.158,2.1-.221,3.146-.016.269-.032.522-.047.79-.032.4-.047.79-.063,1.186-.158,2.624-.3,5.233-.648,7.825,0,.047-.016.095-.016.126-.079.49-.158,1-.253,1.486-.095.537-.174,1.059-.316,1.581-.174.79-.379,1.565-.617,2.371-.079.285-.174.553-.269.854-.19.569-.411,1.154-.648,1.739a38.158,38.158,0,0,1-2.2,4.505,50.105,50.105,0,0,1-14.386,15.571.1.1,0,0,1-.079.063c-.664.474-1.328.9-1.976,1.3a21.5,21.5,0,0,1-21.31.775,27.807,27.807,0,0,1-4.11-2.514.063.063,0,0,1-.063-.032,47.507,47.507,0,0,1-13.153-15.16c-.253-.427-.474-.838-.711-1.265-.111-.221-.221-.458-.332-.68-.19-.364-.364-.759-.569-1.154-.537-1.028-1.012-2.1-1.439-3.146-.111-.3-.253-.585-.348-.885a49.794,49.794,0,0,1-2.545-13.532c-.047-.458-.079-.933-.126-1.407,0-.253-.032-.506-.047-.759-.063-.806-.126-1.628-.19-2.419l-.19-2.166c-.047-.237-.079-.474-.111-.7a6.844,6.844,0,0,1-.126-.79c-.174-.98-.3-1.976-.4-3-.047-.458-.095-.933-.126-1.407q-.142-1.85-.142-3.794c0-.142,0-.3.016-.458,0-1.107.047-2.213.142-3.288.063-.933.174-1.85.316-2.735a43.1,43.1,0,0,1,5.074-15.065c.648-1.122,1.328-2.2,2.055-3.241A36.135,36.135,0,0,1,58.439,17.6c.237-.19.49-.364.727-.522.3-.206.6-.411.9-.6a33.874,33.874,0,0,1,3.652-1.96,29.621,29.621,0,0,1,17.4-2.419c.285.032.569.095.854.142a29.646,29.646,0,0,1,6.829,2.166q1.043.451,2.039,1A29.98,29.98,0,0,1,93.66,17.08c.063.047.158.111.221.158a33.144,33.144,0,0,1,2.83,2.134,36.893,36.893,0,0,1,7.114,8.094q.783,1.186,1.47,2.419c.158.237.269.474.427.743a43.483,43.483,0,0,1,4.537,14.022c0,.032.032.063.032.111.126.885.221,1.8.3,2.735.095,1.075.142,2.182.142,3.288C110.748,50.941,110.748,51.1,110.748,51.242Z" transform="translate(24.44 6.778)" fill="none" stroke="#323232" stroke-miterlimit="10" stroke-width="0.5"/>
      <path id="Path_4023" data-name="Path 4023" d="M110.748,51.242c0,.553,0,1.091-.032,1.612-.063,1.581-.19,3.177-.4,4.727l-.221,2.213-.095,1.2-.063.711-.095,1.028c-.095,1.059-.158,2.1-.221,3.146-.016.269-.032.522-.047.79a63.787,63.787,0,0,1-4.869-28.028,24.828,24.828,0,0,0-11.856-10.86,26.245,26.245,0,0,0-16.441-1.85,26.214,26.214,0,0,0-16.456,1.85,24.863,24.863,0,0,0-11.84,10.86A63.614,63.614,0,0,1,43.4,66.275c0-.253-.032-.506-.047-.759-.063-.806-.126-1.628-.19-2.419l-.19-2.166c-.047-.237-.079-.474-.111-.7a6.844,6.844,0,0,1-.126-.79c-.174-.98-.3-1.976-.4-3-.047-.458-.095-.933-.126-1.407q-.142-1.85-.142-3.794c0-.142,0-.3.016-.458,0-1.107.047-2.213.142-3.288.063-.933.174-1.85.316-2.735a43.1,43.1,0,0,1,5.074-15.065c.648-1.122,1.328-2.2,2.055-3.241A36.135,36.135,0,0,1,58.439,17.6c.237-.19.49-.364.727-.522.3-.206.6-.411.9-.6a33.874,33.874,0,0,1,3.652-1.96,29.621,29.621,0,0,1,17.4-2.419c.285.032.569.095.854.142a29.646,29.646,0,0,1,6.829,2.166q1.043.451,2.039,1A29.98,29.98,0,0,1,93.66,17.08c.063.047.158.111.221.158a33.144,33.144,0,0,1,2.83,2.134,36.893,36.893,0,0,1,7.114,8.094q.783,1.186,1.47,2.419c.158.237.269.474.427.743a43.483,43.483,0,0,1,4.537,14.022c0,.032.032.063.032.111.126.885.221,1.8.3,2.735.095,1.075.142,2.182.142,3.288.016.158.016.316.016.458" transform="translate(24.44 6.778)" fill="#323232"/>
      <path id="Path_4024" data-name="Path 4024" d="M76.188,21.643a10.409,10.409,0,0,0,8.68,8.84" transform="translate(44.253 12.571)" fill="none" stroke="#323232" stroke-linecap="round" stroke-linejoin="round" stroke-width="0.482"/>
      <path id="Path_4025" data-name="Path 4025" d="M75.373,19.966a17.267,17.267,0,0,0,4.284,10.669,15.546,15.546,0,0,0,9.836,5.108" transform="translate(43.779 11.597)" fill="none" stroke="#323232" stroke-linecap="round" stroke-linejoin="round" stroke-width="0.482"/>
      <path id="Path_4026" data-name="Path 4026" d="M75.5,21.435A17.276,17.276,0,0,0,79.783,32.1a15.536,15.536,0,0,0,9.836,5.106" transform="translate(43.852 12.45)" fill="none" stroke="#323232" stroke-linecap="round" stroke-linejoin="round" stroke-width="0.482"/>
      <path id="Path_4027" data-name="Path 4027" d="M54.591,21.643a10.409,10.409,0,0,1-8.68,8.84" transform="translate(26.667 12.571)" fill="none" stroke="#323232" stroke-linecap="round" stroke-linejoin="round" stroke-width="0.482"/>
      <path id="Path_4028" data-name="Path 4028" d="M57.4,19.966a17.276,17.276,0,0,1-4.284,10.669,15.545,15.545,0,0,1-9.836,5.108" transform="translate(25.141 11.597)" fill="none" stroke="#323232" stroke-linecap="round" stroke-linejoin="round" stroke-width="0.482"/>
      <path id="Path_4029" data-name="Path 4029" d="M57.279,21.435A17.276,17.276,0,0,1,52.995,32.1a15.536,15.536,0,0,1-9.836,5.106" transform="translate(25.068 12.45)" fill="none" stroke="#323232" stroke-linecap="round" stroke-linejoin="round" stroke-width="0.482"/>
      <path id="Path_4030" data-name="Path 4030" d="M69.62,41.043a8.211,8.211,0,0,1,3.536-4.418,11.613,11.613,0,0,1,11.105-.673A8.167,8.167,0,0,1,88.3,39.919c-1.938-.194-3.5-.329-5.024-.371s-2.94-.024-4.369.057-2.853.229-4.347.462-3.045.547-4.94.977" transform="translate(40.438 20.241)" fill="#323232"/>
      <path id="Path_4031" data-name="Path 4031" d="M65.859,41.043c-1.9-.43-3.434-.754-4.94-.977S58,39.69,56.572,39.6s-2.858-.109-4.368-.057-3.087.177-5.024.371a8.157,8.157,0,0,1,4.037-3.968,11.613,11.613,0,0,1,11.105.673,8.211,8.211,0,0,1,3.536,4.418" transform="translate(27.404 20.241)" fill="#323232"/>
      <path id="Path_4032" data-name="Path 4032" d="M68.934,47.488c3.86-7.118,12.161-8.091,17.89-2.518l-.458-.145c.161.1.813-.2,1.065-.319a9.4,9.4,0,0,0,1.292-.764.346.346,0,0,1,.474.495,8.943,8.943,0,0,1-1.788,1.744c-.24.161-.92.61-1.4.345-.749-.447-1.47-.939-2.205-1.409-5-3.385-10.765-1.42-14.341,3.015a.349.349,0,0,1-.53-.443" transform="translate(40.003 24.035)" fill="#323232"/>
      <path id="Path_4033" data-name="Path 4033" d="M72.555,44.634a2.907,2.907,0,1,1,2.691,3.108,2.907,2.907,0,0,1-2.691-3.108" transform="translate(42.138 24.358)" fill="#323232"/>
      <path id="Path_4034" data-name="Path 4034" d="M78.122,45.616a7.249,7.249,0,0,0,2.937-1.409" transform="translate(45.376 25.677)" fill="none" stroke="#323232" stroke-linecap="round" stroke-linejoin="round" stroke-width="0.5"/>
      <path id="Path_4035" data-name="Path 4035" d="M69.031,44.7a10.332,10.332,0,0,1,6.878-4.132" transform="translate(40.095 23.564)" fill="none" stroke="#323232" stroke-linecap="round" stroke-linejoin="round" stroke-width="0.5"/>
      <path id="Path_4036" data-name="Path 4036" d="M66.649,47.929c-3.581-4.434-9.338-6.4-14.343-3.013a12.1,12.1,0,0,1-2.563,1.492c-1.348-.292-1.981-1.238-2.83-2.172a.349.349,0,0,1,.06-.487c.367-.285,1.225.634,1.706.754.251.12.9.416,1.065.319l-.458.147c5.729-5.576,14.036-4.6,17.89,2.518a.347.347,0,0,1-.528.441" transform="translate(27.207 24.035)" fill="#323232"/>
      <path id="Path_4037" data-name="Path 4037" d="M58.2,44.634a2.907,2.907,0,1,0-2.691,3.108A2.907,2.907,0,0,0,58.2,44.634" transform="translate(30.431 24.358)" fill="#323232"/>
      <path id="Path_4038" data-name="Path 4038" d="M51.574,45.616a7.249,7.249,0,0,1-2.937-1.409" transform="translate(28.25 25.677)" fill="none" stroke="#323232" stroke-linecap="round" stroke-linejoin="round" stroke-width="0.5"/>
      <path id="Path_4039" data-name="Path 4039" d="M62.113,44.7a10.332,10.332,0,0,0-6.878-4.132" transform="translate(32.082 23.564)" fill="none" stroke="#323232" stroke-linecap="round" stroke-linejoin="round" stroke-width="0.5"/>
      <path id="Path_4040" data-name="Path 4040" d="M65.171,56.583a5.292,5.292,0,0,0,2.016-1.593" transform="translate(37.853 31.94)" fill="none" stroke="#323232" stroke-linecap="round" stroke-linejoin="round" stroke-width="0.5"/>
      <path id="Path_4041" data-name="Path 4041" d="M64.187,56.583a5.292,5.292,0,0,1-2.016-1.593" transform="translate(36.111 31.94)" fill="none" stroke="#323232" stroke-linecap="round" stroke-linejoin="round" stroke-width="0.5"/>
      <line id="Line_80" data-name="Line 80" y2="10.391" transform="translate(101.377 74.584)" fill="#f4f4ff"/>
      <line id="Line_81" data-name="Line 81" y2="10.391" transform="translate(101.377 74.584)" fill="none" stroke="#323232" stroke-miterlimit="10" stroke-width="0.5"/>
      <path id="Path_4042" data-name="Path 4042" d="M78.348,62.167l-.285.275-.016.016a5.666,5.666,0,0,1-3.114.348,15.745,15.745,0,0,0-3.193-.232,26.6,26.6,0,0,0-3.668.956h-.016a27.831,27.831,0,0,0-3.668-.956,15.663,15.663,0,0,0-3.193.232,5.583,5.583,0,0,1-3.13-.364l-.253-.247a8.239,8.239,0,0,0,3.81-1.247l.348-.245a8.6,8.6,0,0,1,2.8-1.581,3.487,3.487,0,0,1,3.272.651,3.526,3.526,0,0,1,3.288-.651,8.6,8.6,0,0,1,2.8,1.581l.348.261a8.359,8.359,0,0,0,3.873,1.2" transform="translate(33.58 34.256)" fill="#323232"/>
      <path id="Path_4043" data-name="Path 4043" d="M62.123,64.83a3.7,3.7,0,0,0,.537.131,8.983,8.983,0,0,0,1.755.3c.174.03.348.03.522.044.126,0,.269.014.4.014h.285" transform="translate(36.083 37.655)" fill="none" stroke="#323232" stroke-linecap="round" stroke-linejoin="round" stroke-width="0.381"/>
      <path id="Path_4044" data-name="Path 4044" d="M78.048,62.458a10.22,10.22,0,0,1-5.406,5.337,11.738,11.738,0,0,1-4.521.928h-.285c-.126,0-.269-.014-.4-.014l-.522-.044a12.194,12.194,0,0,1-1.755-.3,10.894,10.894,0,0,1-1.691-.566,10.245,10.245,0,0,1-5.406-5.351,5.569,5.569,0,0,0,3.13.362,15.776,15.776,0,0,1,3.193-.232,27.837,27.837,0,0,1,3.668.958h.016a26.607,26.607,0,0,1,3.668-.958,15.859,15.859,0,0,1,3.193.232,5.637,5.637,0,0,0,3.114-.348l.016-.014.285-.277a8.341,8.341,0,0,1-3.873-1.2l-.348-.261a8.629,8.629,0,0,0-2.8-1.581,3.523,3.523,0,0,0-3.288.653,3.483,3.483,0,0,0-3.272-.653,8.628,8.628,0,0,0-2.8,1.581l-.348.247a8.257,8.257,0,0,1-3.81,1.247l.253.247" transform="translate(33.58 34.256)" fill="none" stroke="#323232" stroke-linecap="round" stroke-linejoin="round" stroke-width="0.381"/>
      <path id="Path_4045" data-name="Path 4045" d="M77.663,61.387a13.444,13.444,0,0,1-4.9,1.864,26.2,26.2,0,0,1-4.939.471h-.31c-.139,0-.294-.008-.433-.008-.19-.006-.379-.014-.569-.022-.639-.028-1.295-.081-1.916-.155-.639-.073-1.26-.169-1.848-.286A14.221,14.221,0,0,1,58.2,61.608" transform="translate(33.803 35.656)" fill="none" stroke="#323232" stroke-linecap="round" stroke-linejoin="round" stroke-width="0.284"/>
      <path id="Path_4046" data-name="Path 4046" d="M27.06,133.463c12.838,5.794,24.558,7.578,26.18,3.988s-7.474-11.2-20.315-16.991-24.558-7.579-26.177-3.988,7.473,11.2,20.312,16.991" transform="translate(3.811 66.575)" fill="#323232"/>
      <path id="Path_4047" data-name="Path 4047" d="M.24,188.4c.046-.158.109-.3.157-.458l17.1-48.864,3.731-10.655,7.525-21.5A22.272,22.272,0,0,1,42.02,93.044a17.441,17.441,0,0,1,5.8-1.012,16.278,16.278,0,0,1,5.375.917C63.282,96.49,67.8,109.137,63.045,120.5l-9.8,23.333-3.557,8.457-2.893,6.892L34.511,188.4" transform="translate(0.139 53.455)" fill="#f4f4ff"/>
      <path id="Path_4048" data-name="Path 4048" d="M.24,188.4c.046-.158.109-.3.157-.458l17.1-48.864,3.731-10.655,7.525-21.5A22.272,22.272,0,0,1,42.02,93.044a17.441,17.441,0,0,1,5.8-1.012,16.278,16.278,0,0,1,5.375.917C63.282,96.49,67.8,109.137,63.045,120.5l-9.8,23.333-3.557,8.457-2.893,6.892L34.511,188.4" transform="translate(0.139 53.455)" fill="none" stroke="#323232" stroke-miterlimit="10" stroke-width="0.5"/>
      <path id="Path_4049" data-name="Path 4049" d="M6.854,132.109c2.373-3,13.619-1.11,25.9,4.417,12.841,5.8,21.947,13.405,20.312,17.005a1.232,1.232,0,0,1-.136.213l.136.058,14.185-33.251C72.811,107.5,66.8,92.614,54.153,88.2a21.914,21.914,0,0,0-7.258-1.246,24.188,24.188,0,0,0-21.227,13.464Z" transform="translate(3.981 50.504)" fill="#323232"/>
      <path id="Path_4050" data-name="Path 4050" d="M116.957,133.463c-12.838,5.794-24.56,7.578-26.18,3.988s7.474-11.2,20.314-16.991,24.558-7.579,26.179-3.988-7.474,11.2-20.312,16.991" transform="translate(52.618 66.575)" fill="#323232"/>
      <path id="Path_4051" data-name="Path 4051" d="M116.064,188.4l-13.028-30.969-2.15-5.138-3.557-8.457-2.355-5.6-4-9.548L87.529,120.5c-4.773-11.366-.237-24.013,9.85-27.554a16.173,16.173,0,0,1,5.359-.917,17.167,17.167,0,0,1,4.725.68c6.244,1.755,11.81,6.956,14.356,14.212l7.523,21.5,3.731,10.655,17.1,48.864c.049.158.111.3.16.458" transform="translate(49.734 53.455)" fill="#f4f4ff"/>
      <path id="Path_4052" data-name="Path 4052" d="M116.064,188.4l-13.028-30.969-2.15-5.138-3.557-8.457-2.355-5.6-4-9.548L87.529,120.5c-4.773-11.366-.237-24.013,9.85-27.554a16.173,16.173,0,0,1,5.359-.917,17.167,17.167,0,0,1,4.725.68c6.244,1.755,11.81,6.956,14.356,14.212l7.523,21.5,3.731,10.655,17.1,48.864c.049.158.111.3.16.458" transform="translate(49.734 53.455)" fill="none" stroke="#323232" stroke-miterlimit="10" stroke-width="0.5"/>
      <path id="Path_4053" data-name="Path 4053" d="M142.9,132.109c-2.373-3-13.619-1.11-25.9,4.417-12.841,5.8-21.947,13.405-20.312,17.005a1.232,1.232,0,0,0,.136.213l-.136.058L82.5,120.552C76.94,107.5,82.952,92.614,95.6,88.2a21.914,21.914,0,0,1,7.258-1.246,24.188,24.188,0,0,1,21.227,13.464Z" transform="translate(46.713 50.504)" fill="#323232"/>
      <path id="Path_4054" data-name="Path 4054" d="M142.9,115.87l-4.047,19.349a27.886,27.886,0,0,1,1.865,5.58,29.215,29.215,0,0,1,.68,6.26,28.174,28.174,0,0,1-.98,7.43,27.514,27.514,0,0,1-2.261,5.849,29.077,29.077,0,0,1-6.181,8.062l-4.758,22.906H41.587l-4.758-23.554A28.848,28.848,0,0,1,28.1,147.06a29.327,29.327,0,0,1,.885-7.114,30.708,30.708,0,0,1,1.375-4.173l-4.015-19.9c-1.723-7.335-1.391-14.512,1.2-19.919a15.615,15.615,0,0,1,11.208-8.9,21.694,21.694,0,0,1,4.442-.443h84.954a20.8,20.8,0,0,1,4.363.443,13.482,13.482,0,0,1,10.07,8.568c2.229,5.454,2.071,12.773.316,20.25" transform="translate(14.683 50.305)" fill="#f4f4ff"/>
      <path id="Path_4055" data-name="Path 4055" d="M142.9,115.87l-4.047,19.349a27.886,27.886,0,0,1,1.865,5.58,29.215,29.215,0,0,1,.68,6.26,28.174,28.174,0,0,1-.98,7.43,27.514,27.514,0,0,1-2.261,5.849,29.077,29.077,0,0,1-6.181,8.062l-4.758,22.906H41.587l-4.758-23.554A28.848,28.848,0,0,1,28.1,147.06a29.327,29.327,0,0,1,.885-7.114,30.708,30.708,0,0,1,1.375-4.173l-4.015-19.9c-1.723-7.335-1.391-14.512,1.2-19.919a15.615,15.615,0,0,1,11.208-8.9,21.694,21.694,0,0,1,4.442-.443h84.954a20.8,20.8,0,0,1,4.363.443,13.482,13.482,0,0,1,10.07,8.568C144.815,101.074,144.657,108.393,142.9,115.87Z" transform="translate(14.683 50.305)" fill="none" stroke="#323232" stroke-linecap="round" stroke-linejoin="round" stroke-width="0.5"/>
      <path id="Path_4056" data-name="Path 4056" d="M91.12,85.969l6.739,1.012c-3.826,9.928-13.643,17.595-24.361,18.053-11.508.506-22.7-7.367-26.764-18.053L56.3,85.969" transform="translate(27.145 49.934)" fill="#f4f4ff"/>
      <path id="Path_4057" data-name="Path 4057" d="M91.12,85.969l6.739,1.012c-3.826,9.928-13.643,17.595-24.361,18.053-11.508.506-22.7-7.367-26.764-18.053L56.3,85.969" transform="translate(27.145 49.934)" fill="none" stroke="#323232" stroke-linecap="round" stroke-linejoin="round" stroke-width="0.5"/>
    </g>
  </g>
</svg>
