<svg id="Group_4453" data-name="Group 4453" xmlns="http://www.w3.org/2000/svg" xmlns:xlink="http://www.w3.org/1999/xlink" width="201.543" height="255.854" viewBox="0 0 201.543 255.854">
  <defs>
    <clipPath id="clip-path">
      <rect id="Rectangle_1762" data-name="Rectangle 1762" width="201.543" height="255.854" fill="none"/>
    </clipPath>
  </defs>
  <g id="Group_4111" data-name="Group 4111" clip-path="url(#clip-path)">
    <path id="Path_3256" data-name="Path 3256" d="M3.362,95.476a95.476,95.476,0,1,1,95.476,95.476A95.477,95.477,0,0,1,3.362,95.476" transform="translate(1.933)" fill="#f1cc45"/>
    <path id="Path_3257" data-name="Path 3257" d="M144.729,89.734c3.623-3.067,3.308-8.261,1.425-12.619a11.476,11.476,0,0,0-11.5-6.664c3.785-2.656,3.275-8.093,1.128-12.186A9.95,9.95,0,0,0,123.933,53.7c4.032-3.216,4.168-8.534,1.55-12.978a10.623,10.623,0,0,0-4.752-4.188,19.318,19.318,0,0,0-7.138-10.8,18.9,18.9,0,0,0-9.86-3.468c-4.109-2.78-9.348-4.4-13.727-2.254a34.548,34.548,0,0,0-36.262,8.962,11.606,11.606,0,0,0-3.235,5.689c-.362,2.183.57,4.713,2.608,5.576-5.539-2.7-10.447-.589-14.692,3.876a15.035,15.035,0,0,0-2.205,17.135c-4.757.158-8.59,5.749-9.715,10.373A11.313,11.313,0,0,0,31.82,83.818c-5.865.6-8.037,8.664-6.267,14.29a10.33,10.33,0,0,0,8.534,6.724,16.7,16.7,0,0,0-7.478,7.759,11.992,11.992,0,0,0,3.868,14.081,11.993,11.993,0,0,0,14.582-.808c-1.336,3.693,1.427,8.708,4.924,10.5s7.787,1.4,11.413-.106,6.73-4.02,9.776-6.5c-1.258.753.614,2.652,1.177,4.008A6.764,6.764,0,0,0,75.4,136.82c7.07,4.064,17.122,1.665,21.6-5.154-.23,4.87,3.516,9.435,8.389,9.575a9.568,9.568,0,0,0,9.464-9.107c3.138,4.722,8.905,5.935,13.378,2.454a10.764,10.764,0,0,0,1.314-15.094c4.125,3.681,11.337,5.916,14.746,1.562a10.562,10.562,0,0,0-2.262-14.624c5.089,1.085,10.989-.909,11.647-6.07a9.835,9.835,0,0,0-8.946-10.628" transform="translate(14.35 10.433)" fill="#323232"/>
    <path id="Path_3258" data-name="Path 3258" d="M88.389,118.714a18.04,18.04,0,1,1-36.047.613c0-.2,0-.413.014-.613l2.008-27.519.255-3.544,1.254-17.1H84.857l1.3,17.74.285,3.871Z" transform="translate(30.099 40.571)" fill="#f4f4ff"/>
    <path id="Path_3259" data-name="Path 3259" d="M88.389,118.714a18.04,18.04,0,1,1-36.047.613c0-.2,0-.413.014-.613l2.008-27.519.255-3.544,1.254-17.1H84.857l1.3,17.74.285,3.871Z" transform="translate(30.099 40.571)" fill="none" stroke="#323232" stroke-linecap="round" stroke-linejoin="round" stroke-width="0.5"/>
    <path id="Path_3260" data-name="Path 3260" d="M86.493,105.19C77.357,106.309,67.056,101.914,60.079,93a33.55,33.55,0,0,1-5.938-11.592l.819-11.1H83.941l1.292,17.735.3,3.875Z" transform="translate(31.134 40.428)" fill="#323232"/>
    <path id="Path_3261" data-name="Path 3261" d="M81.734,56.513c-3.642,5.85-3.289,12.775.786,15.475s10.331.142,13.972-5.7,3.289-12.775-.786-15.472-10.331-.145-13.972,5.7" transform="translate(45.554 28.6)" fill="#f4f4ff"/>
    <path id="Path_3262" data-name="Path 3262" d="M81.734,56.513c-3.642,5.85-3.289,12.775.786,15.475s10.331.142,13.972-5.7,3.289-12.775-.786-15.472S85.375,50.666,81.734,56.513Z" transform="translate(45.554 28.6)" fill="none" stroke="#323232" stroke-linecap="round" stroke-linejoin="round" stroke-width="0.5"/>
    <path id="Path_3263" data-name="Path 3263" d="M87.739,52.2a5.43,5.43,0,0,1,1.419,9.3" transform="translate(50.454 30.017)" fill="none" stroke="#323232" stroke-linecap="round" stroke-linejoin="round" stroke-width="0.5"/>
    <path id="Path_3264" data-name="Path 3264" d="M52.914,56.513c3.642,5.85,3.289,12.775-.786,15.475s-10.331.142-13.972-5.7-3.289-12.775.786-15.472,10.331-.145,13.972,5.7" transform="translate(20.495 28.6)" fill="#f4f4ff"/>
    <path id="Path_3265" data-name="Path 3265" d="M52.914,56.513c3.642,5.85,3.289,12.775-.786,15.475s-10.331.142-13.972-5.7-3.289-12.775.786-15.472S49.272,50.666,52.914,56.513Z" transform="translate(20.495 28.6)" fill="none" stroke="#323232" stroke-linecap="round" stroke-linejoin="round" stroke-width="0.5"/>
    <path id="Path_3266" data-name="Path 3266" d="M40.943,52.2a5.43,5.43,0,0,0-1.419,9.3" transform="translate(21.56 30.017)" fill="none" stroke="#323232" stroke-linecap="round" stroke-linejoin="round" stroke-width="0.5"/>
    <path id="Path_3267" data-name="Path 3267" d="M113.5,60.964c0,.539,0,1.058-.039,1.55a43.607,43.607,0,0,1-.417,4.557l-.228,2.144-.11,1.159-.169,1.681c-.1,1.021-.169,2.022-.239,3.026-.039.639-.079,1.271-.118,1.9-.159,2.544-.309,5.05-.687,7.554,0,.038-.019.083-.019.121-.08.474-.159.956-.26,1.429a15.54,15.54,0,0,1-.347,1.533q-.269,1.127-.657,2.282a8.436,8.436,0,0,1-.288.817c-.2.556-.436,1.114-.676,1.688a35.674,35.674,0,0,1-2.356,4.335,50.368,50.368,0,0,1-15.316,15.024.109.109,0,0,1-.08.055c-.706.455-1.411.873-2.107,1.252a25.026,25.026,0,0,1-22.692.753,32.34,32.34,0,0,1-4.383-2.422.055.055,0,0,1-.058-.038A47.557,47.557,0,0,1,48.236,96.74c-.257-.4-.5-.8-.745-1.216-.118-.214-.238-.436-.358-.65-.2-.362-.4-.742-.606-1.114a33.638,33.638,0,0,1-1.54-3.043c-.12-.279-.258-.558-.369-.854-1.7-4.056-2.306-8.586-2.7-13.04-.069-.695-.129-1.4-.189-2.1-.069-.78-.139-1.559-.2-2.329l-.2-2.089c-.05-.232-.09-.454-.131-.677a6.566,6.566,0,0,1-.128-.751c-.18-.956-.318-1.912-.428-2.9a45.712,45.712,0,0,1-.279-5.012,3.113,3.113,0,0,1,.02-.436c0-1.076.05-2.134.14-3.183.079-.89.2-1.772.348-2.635A38.659,38.659,0,0,1,46.28,40.186,36.4,36.4,0,0,1,82.87,23.431a36.073,36.073,0,0,1,24.824,16.941c.159.222.288.455.449.706a39.4,39.4,0,0,1,4.84,13.53c0,.038.02.065.02.1.139.863.247,1.745.328,2.635.1,1.049.148,2.107.148,3.183a3.115,3.115,0,0,1,.02.436" transform="translate(23.211 13.213)" fill="#f4f4ff"/>
    <path id="Path_3268" data-name="Path 3268" d="M113.5,60.964c0,.539,0,1.058-.039,1.55a43.607,43.607,0,0,1-.417,4.557l-.228,2.144-.11,1.159-.169,1.681c-.1,1.021-.169,2.022-.239,3.026-.039.639-.079,1.271-.118,1.9-.159,2.544-.309,5.05-.687,7.554,0,.038-.019.083-.019.121-.08.474-.159.956-.26,1.429a15.54,15.54,0,0,1-.347,1.533q-.269,1.127-.657,2.282a8.436,8.436,0,0,1-.288.817c-.2.556-.436,1.114-.676,1.688a35.674,35.674,0,0,1-2.356,4.335,50.368,50.368,0,0,1-15.316,15.024.109.109,0,0,1-.08.055c-.706.455-1.411.873-2.107,1.252a25.026,25.026,0,0,1-22.692.753,32.34,32.34,0,0,1-4.383-2.422.055.055,0,0,1-.058-.038A47.557,47.557,0,0,1,48.236,96.74c-.257-.4-.5-.8-.745-1.216-.118-.214-.238-.436-.358-.65-.2-.362-.4-.742-.606-1.114a33.638,33.638,0,0,1-1.54-3.043c-.12-.279-.258-.558-.369-.854-1.7-4.056-2.306-8.586-2.7-13.04-.069-.695-.129-1.4-.189-2.1-.069-.78-.139-1.559-.2-2.329l-.2-2.089c-.05-.232-.09-.454-.131-.677a6.566,6.566,0,0,1-.128-.751c-.18-.956-.318-1.912-.428-2.9a45.712,45.712,0,0,1-.279-5.012,3.113,3.113,0,0,1,.02-.436c0-1.076.05-2.134.14-3.183.079-.89.2-1.772.348-2.635A38.659,38.659,0,0,1,46.28,40.186,36.4,36.4,0,0,1,82.87,23.431a36.073,36.073,0,0,1,24.824,16.941c.159.222.288.455.449.706a39.4,39.4,0,0,1,4.84,13.53c0,.038.02.065.02.1.139.863.247,1.745.328,2.635.1,1.049.148,2.107.148,3.183A3.115,3.115,0,0,1,113.5,60.964Z" transform="translate(23.211 13.213)" fill="none" stroke="#323232" stroke-linecap="round" stroke-linejoin="round" stroke-width="0.509"/>
    <path id="Path_3269" data-name="Path 3269" d="M88.977,20.331a11.614,11.614,0,0,1,2.194,14.127,12.88,12.88,0,0,1-13.786,5.59c1.611,2.415.345,6.117-1.391,8.453a8,8,0,0,1-7.938,2.876c2.478,7.71-2.575,16.751-9.9,20.781,1.981,3.823.921,9.921-1.17,13.69A14.446,14.446,0,0,1,46.4,92.93a12.37,12.37,0,0,1-7.533,20.562c-3.645.6-9.208-.334-10.8-3.519A7.866,7.866,0,0,1,30.4,100.43a26.039,26.039,0,0,1-2.925-10.384,21.587,21.587,0,0,1,3.39-13.424A16.036,16.036,0,0,1,42.977,69.57c-4.231-6-5.275-13.144-2.192-19.753a22.871,22.871,0,0,1,17.4-12.537,13.068,13.068,0,0,1,4.881-10.74A15.2,15.2,0,0,1,75.3,23.746c1.09-2.479,4.987-3.939,7.77-4.371a8.75,8.75,0,0,1,7.626,2.611" transform="translate(15.714 11.085)" fill="#323232"/>
    <path id="Path_3270" data-name="Path 3270" d="M69.268,21.123a16.121,16.121,0,0,0,.4,16.332,16.124,16.124,0,0,0,14.654,7.222c-2.654,2.958-2.2,7.852.276,10.964A8.783,8.783,0,0,0,95.356,57.8c-1.78,1.495-3.6,3.752-3.766,6.07a5.381,5.381,0,0,0,3.377,5.513c2.215.7,5-.964,5.017-3.289.05-6.541,4.059-12.69,1.857-18.85A23.37,23.37,0,0,0,88.6,33.567C86.43,25.146,77.962,21.006,69.268,21.123" transform="translate(38.668 12.145)" fill="#323232"/>
    <circle id="Ellipse_29" data-name="Ellipse 29" cx="12.841" cy="12.841" r="12.841" transform="translate(70.195 75.698)" fill="none" stroke="#323232" stroke-linecap="round" stroke-linejoin="round" stroke-width="0.5"/>
    <circle id="Ellipse_30" data-name="Ellipse 30" cx="12.841" cy="12.841" r="12.841" transform="translate(105.547 75.698)" fill="none" stroke="#323232" stroke-linecap="round" stroke-linejoin="round" stroke-width="0.5"/>
    <path id="Path_3271" data-name="Path 3271" d="M60.877,55.727a9.618,9.618,0,0,1,9.715.035" transform="translate(35.007 31.299)" fill="none" stroke="#323232" stroke-linecap="round" stroke-linejoin="round" stroke-width="0.5"/>
    <line id="Line_30" data-name="Line 30" x1="7.263" y1="9.671" transform="translate(62.933 78.869)" fill="none" stroke="#323232" stroke-linecap="round" stroke-linejoin="round" stroke-width="0.5"/>
    <line id="Line_31" data-name="Line 31" y1="9.671" x2="7.263" transform="translate(130.992 78.869)" fill="none" stroke="#323232" stroke-linecap="round" stroke-linejoin="round" stroke-width="0.5"/>
    <path id="Path_3272" data-name="Path 3272" d="M67.785,49.964a8.521,8.521,0,0,1,3.854-4.059,12.241,12.241,0,0,1,10.936-.359,8.666,8.666,0,0,1,4.135,3.766l-5.059-.139c-1.533-.028-2.989-.02-4.432.02s-2.892.128-4.416.257-3.1.3-5.017.513" transform="translate(38.98 25.549)" fill="#323232"/>
    <path id="Path_3273" data-name="Path 3273" d="M66.86,49.964c-1.923-.216-3.484-.391-5.018-.513s-2.974-.211-4.418-.257-2.9-.049-4.431-.02l-5.061.139a8.669,8.669,0,0,1,4.136-3.766A12.237,12.237,0,0,1,63,45.905a8.528,8.528,0,0,1,3.857,4.059" transform="translate(27.564 25.549)" fill="#323232"/>
    <path id="Path_3274" data-name="Path 3274" d="M68.359,58.611c1.451-3.953,5.172-7.36,9.633-7.015,3.246.221,6.949,1.948,8.247,5.072a.379.379,0,0,1-.51.458c-6.433-4.944-12.118-5.349-16.782,1.84a.347.347,0,0,1-.588-.354" transform="translate(39.289 29.656)" fill="#323232"/>
    <path id="Path_3275" data-name="Path 3275" d="M72.033,55.171a2.9,2.9,0,1,1,2.681,3.1,2.9,2.9,0,0,1-2.681-3.1" transform="translate(41.418 30.18)" fill="#323232"/>
    <path id="Path_3276" data-name="Path 3276" d="M77.576,56.379a7.222,7.222,0,0,0,2.926-1.4" transform="translate(44.61 31.614)" fill="none" stroke="#323232" stroke-linecap="round" stroke-linejoin="round" stroke-width="0.5"/>
    <path id="Path_3277" data-name="Path 3277" d="M65.328,58.964c-3.342-5.64-9.412-7.344-14.857-3.126-.389.247-2.415,2.183-2.435.828,1.3-3.123,5-4.85,8.247-5.07A9.515,9.515,0,0,1,64.8,56.321c.386.754.759,1.517,1.114,2.289a.347.347,0,0,1-.588.354" transform="translate(27.623 29.656)" fill="#323232"/>
    <path id="Path_3278" data-name="Path 3278" d="M57.816,55.171a2.9,2.9,0,1,0-2.681,3.1,2.9,2.9,0,0,0,2.681-3.1" transform="translate(29.92 30.18)" fill="#323232"/>
    <path id="Path_3279" data-name="Path 3279" d="M51.226,56.379a7.222,7.222,0,0,1-2.926-1.4" transform="translate(27.775 31.614)" fill="none" stroke="#323232" stroke-linecap="round" stroke-linejoin="round" stroke-width="0.5"/>
    <path id="Path_3280" data-name="Path 3280" d="M60.681,65.187A6.327,6.327,0,0,1,70.717,65.1" transform="translate(34.895 36.039)" fill="none" stroke="#323232" stroke-linecap="round" stroke-linejoin="round" stroke-width="0.464"/>
    <path id="Path_3281" data-name="Path 3281" d="M67.226,73.177a33.65,33.65,0,0,0,3.86-.246c.392-.049,4.226-.575,4.2-.816,0,0-1.974-1.517-2.659-2.1l-.3-.271a7.747,7.747,0,0,0-2.449-1.681,2.763,2.763,0,0,0-2.906.641,2.768,2.768,0,0,0-2.893-.718A7.744,7.744,0,0,0,61.584,69.6l-.307.261c-.7.561-2.719,2.029-2.719,2.029-.028.313,3.3.89,3.686.947a33.566,33.566,0,0,0,4.243.339c.246,0,.493,0,.739,0" transform="translate(33.674 39.019)" fill="#323232"/>
    <path id="Path_3282" data-name="Path 3282" d="M60.928,72.822a9.926,9.926,0,0,0,9.683.139" transform="translate(35.037 41.876)" fill="#f4f4ff"/>
    <path id="Path_3283" data-name="Path 3283" d="M60.928,72.822a9.926,9.926,0,0,0,9.683.139" transform="translate(35.037 41.876)" fill="none" stroke="#323232" stroke-linecap="round" stroke-linejoin="round" stroke-width="0.509"/>
    <path id="Path_3284" data-name="Path 3284" d="M20.424,163.333c12.791,5.773,24.47,7.551,26.083,3.974s-7.447-11.156-20.238-16.929S1.8,142.828.186,146.406s7.447,11.155,20.238,16.927" transform="translate(0 83.129)" fill="#323232"/>
    <path id="Path_3285" data-name="Path 3285" d="M36.325,197.247,49.3,166.392l2.142-5.119,3.544-8.427,2.347-5.576,3.985-9.513,3.434-8.159c4.757-11.325.236-23.925-9.813-27.453a16.127,16.127,0,0,0-5.339-.914,17.107,17.107,0,0,0-4.709.677c-6.221,1.748-11.766,6.93-14.3,14.16l-7.5,21.421-3.717,10.616L2.336,196.79c-.047.158-.11.3-.158.457" transform="translate(1.252 58.213)" fill="#f4f4ff"/>
    <path id="Path_3286" data-name="Path 3286" d="M36.325,197.247,49.3,166.392l2.142-5.119,3.544-8.427,2.347-5.576,3.985-9.513,3.434-8.159c4.757-11.325.236-23.925-9.813-27.453a16.127,16.127,0,0,0-5.339-.914,17.107,17.107,0,0,0-4.709.677c-6.221,1.748-11.766,6.93-14.3,14.16l-7.5,21.421-3.717,10.616L2.336,196.79c-.047.158-.11.3-.158.457" transform="translate(1.252 58.213)" fill="none" stroke="#323232" stroke-linecap="round" stroke-linejoin="round" stroke-width="0.5"/>
    <path id="Path_3287" data-name="Path 3287" d="M.212,173.842c2.366-2.985,13.569-1.106,25.8,4.4,12.794,5.776,21.866,13.356,20.238,16.943a1.229,1.229,0,0,1-.135.213l.135.058L73.9,129.628c5.543-13.007-.447-27.836-13.046-32.237a21.833,21.833,0,0,0-7.231-1.241,24.1,24.1,0,0,0-21.15,13.415Z" transform="translate(0.122 55.291)" fill="#323232"/>
    <path id="Path_3288" data-name="Path 3288" d="M12.8,130.561a1.6,1.6,0,1,0,1.6-1.6,1.6,1.6,0,0,0-1.6,1.6" transform="translate(7.359 74.159)" fill="#f4f4ff"/>
    <path id="Path_3289" data-name="Path 3289" d="M15.713,142.74a2.266,2.266,0,1,0,2.266-2.266,2.266,2.266,0,0,0-2.266,2.266" transform="translate(9.036 80.779)" fill="#f4f4ff"/>
    <path id="Path_3290" data-name="Path 3290" d="M22.861,123.778a1.918,1.918,0,1,1-1.917-1.917,1.917,1.917,0,0,1,1.917,1.917" transform="translate(10.941 70.076)" fill="#f4f4ff"/>
    <path id="Path_3291" data-name="Path 3291" d="M124.585,163.333c-12.793,5.773-24.472,7.551-26.086,3.974s7.448-11.156,20.239-16.929,24.468-7.551,26.083-3.972-7.447,11.155-20.236,16.927" transform="translate(56.535 83.129)" fill="#323232"/>
    <path id="Path_3292" data-name="Path 3292" d="M115.175,197.247l-12.98-30.855-2.142-5.119-3.544-8.427-2.347-5.576-3.985-9.513L86.744,129.6c-4.755-11.325-.236-23.925,9.814-27.453a16.113,16.113,0,0,1,5.339-.914,17.1,17.1,0,0,1,4.708.677c6.221,1.748,11.767,6.93,14.3,14.16l7.5,21.421,3.717,10.616,17.042,48.685c.049.158.11.3.159.457" transform="translate(48.791 58.213)" fill="#f4f4ff"/>
    <path id="Path_3293" data-name="Path 3293" d="M115.175,197.247l-12.98-30.855-2.142-5.119-3.544-8.427-2.347-5.576-3.985-9.513L86.744,129.6c-4.755-11.325-.236-23.925,9.814-27.453a16.113,16.113,0,0,1,5.339-.914,17.1,17.1,0,0,1,4.708.677c6.221,1.748,11.767,6.93,14.3,14.16l7.5,21.421,3.717,10.616,17.042,48.685c.049.158.11.3.159.457" transform="translate(48.791 58.213)" fill="none" stroke="#323232" stroke-linecap="round" stroke-linejoin="round" stroke-width="0.5"/>
    <path id="Path_3294" data-name="Path 3294" d="M155.409,173.842c-2.364-2.985-13.569-1.106-25.8,4.4-12.794,5.776-21.866,13.356-20.238,16.943a1.229,1.229,0,0,0,.135.213l-.135.058L81.72,129.628c-5.544-13.007.446-27.836,13.045-32.237A21.833,21.833,0,0,1,102,96.15a24.1,24.1,0,0,1,21.15,13.415Z" transform="translate(45.801 55.291)" fill="#323232"/>
    <path id="Path_3295" data-name="Path 3295" d="M104.538,107.731a1.569,1.569,0,1,1-1.569-1.569,1.569,1.569,0,0,1,1.569,1.569" transform="translate(58.311 61.048)" fill="#f4f4ff"/>
    <path id="Path_3296" data-name="Path 3296" d="M116.33,130.561a1.6,1.6,0,1,1-1.6-1.6,1.6,1.6,0,0,1,1.6,1.6" transform="translate(65.057 74.159)" fill="#f4f4ff"/>
    <path id="Path_3297" data-name="Path 3297" d="M108.113,123.353a1.918,1.918,0,1,1-1.918-1.918,1.917,1.917,0,0,1,1.918,1.918" transform="translate(59.965 69.831)" fill="#f4f4ff"/>
    <path id="Path_3298" data-name="Path 3298" d="M113.9,142.74a2.266,2.266,0,1,1-2.266-2.266,2.266,2.266,0,0,1,2.266,2.266" transform="translate(62.893 80.779)" fill="#f4f4ff"/>
    <path id="Path_3299" data-name="Path 3299" d="M101.661,145.584a1.569,1.569,0,1,1-1.569-1.569,1.569,1.569,0,0,1,1.569,1.569" transform="translate(56.656 82.816)" fill="#f4f4ff"/>
    <path id="Path_3300" data-name="Path 3300" d="M143.479,125.116l-4.032,19.279a27.785,27.785,0,0,1,1.859,5.56,29.106,29.106,0,0,1,.677,6.237,28.071,28.071,0,0,1-.977,7.4,27.414,27.414,0,0,1-2.252,5.828,28.971,28.971,0,0,1-6.158,8.033l-4.741,22.822H42.534l-4.741-23.468A28.743,28.743,0,0,1,29.1,156.192a29.22,29.22,0,0,1,.882-7.088,30.6,30.6,0,0,1,1.37-4.158l-4-19.83c-1.717-7.308-1.386-14.459,1.2-19.846A15.558,15.558,0,0,1,39.715,96.4a21.614,21.614,0,0,1,4.426-.441h84.643a20.724,20.724,0,0,1,4.347.441,13.432,13.432,0,0,1,10.033,8.537c2.221,5.434,2.063,12.726.315,20.176" transform="translate(15.116 55.183)" fill="#323232"/>
    <path id="Path_3301" data-name="Path 3301" d="M104.744,114.467c-1.15,6.466-2.358,12.919-3.676,19.351,5.215,10.028,2.27,25.32-7.2,33a29.748,29.748,0,0,0,6.511-33.141c1.361-6.423,2.834-12.822,4.364-19.208" transform="translate(53.979 65.824)" fill="#fff"/>
    <path id="Path_3302" data-name="Path 3302" d="M37.484,166.173a28.493,28.493,0,0,1-6.762-32c-1.288-5.484-2.539-13.389-3.671-19.7,1.533,6.574,3,13.16,4.35,19.772a29.929,29.929,0,0,0,6.083,31.934" transform="translate(15.556 65.824)" fill="#fff"/>
    <path id="Path_3303" data-name="Path 3303" d="M90.1,95.589l8.578,1.287c-3.813,9.891-13.593,17.53-24.272,17.987-11.466.5-22.618-7.34-26.667-17.987l8.338-1.994" transform="translate(27.453 54.562)" fill="#f4f4ff"/>
    <path id="Path_3304" data-name="Path 3304" d="M90.1,95.589l8.578,1.287c-3.813,9.891-13.593,17.53-24.272,17.987-11.466.5-22.618-7.34-26.667-17.987l8.338-1.994" transform="translate(27.453 54.562)" fill="none" stroke="#323232" stroke-linecap="round" stroke-linejoin="round" stroke-width="0.5"/>
    <path id="Path_3305" data-name="Path 3305" d="M41.03,122.246a1.918,1.918,0,1,1-1.917-1.917,1.917,1.917,0,0,1,1.917,1.917" transform="translate(21.389 69.195)" fill="#f4f4ff"/>
    <path id="Path_3306" data-name="Path 3306" d="M54.256,152.767a3.661,3.661,0,1,1-3.66-3.66,3.66,3.66,0,0,1,3.66,3.66" transform="translate(26.989 85.744)" fill="#f4f4ff"/>
    <path id="Path_3307" data-name="Path 3307" d="M89.005,132.731a2.441,2.441,0,1,1-2.441-2.44,2.441,2.441,0,0,1,2.441,2.44" transform="translate(48.375 74.924)" fill="#f4f4ff"/>
    <path id="Path_3308" data-name="Path 3308" d="M72.985,129.148a5.056,5.056,0,1,1-5.056-5.056,5.056,5.056,0,0,1,5.056,5.056" transform="translate(36.155 71.359)" fill="#f4f4ff"/>
    <path id="Path_3309" data-name="Path 3309" d="M94.379,104.316a1.918,1.918,0,1,1-1.918-1.917,1.919,1.919,0,0,1,1.918,1.917" transform="translate(52.067 58.884)" fill="#f4f4ff"/>
    <path id="Path_3310" data-name="Path 3310" d="M42.3,106.5a3.661,3.661,0,1,1-3.66-3.66,3.66,3.66,0,0,1,3.66,3.66" transform="translate(20.116 59.139)" fill="#f4f4ff"/>
    <path id="Path_3311" data-name="Path 3311" d="M82.3,154.283a2.963,2.963,0,1,1-2.964-2.964,2.964,2.964,0,0,1,2.964,2.964" transform="translate(43.921 87.016)" fill="#f4f4ff"/>
    <path id="Path_3312" data-name="Path 3312" d="M42.774,141.934a2.789,2.789,0,1,1-2.789-2.789,2.79,2.79,0,0,1,2.789,2.789" transform="translate(21.389 80.015)" fill="#f4f4ff"/>
    <path id="Path_3313" data-name="Path 3313" d="M85.463,116.35a2.441,2.441,0,1,1-2.44-2.44,2.441,2.441,0,0,1,2.44,2.44" transform="translate(46.339 65.504)" fill="#f4f4ff"/>
    <path id="Path_3314" data-name="Path 3314" d="M60.926,117.141a2.79,2.79,0,1,1-2.791-2.789,2.791,2.791,0,0,1,2.791,2.789" transform="translate(31.827 65.758)" fill="#f4f4ff"/>
    <path id="Path_3315" data-name="Path 3315" d="M68.318,156.7a1.395,1.395,0,1,1-1.394-1.394,1.393,1.393,0,0,1,1.394,1.394" transform="translate(37.682 89.308)" fill="#f4f4ff"/>
  </g>
</svg>
