<svg xmlns="http://www.w3.org/2000/svg" width="241.61" height="155.708" viewBox="0 0 241.61 155.708">
  <g id="Group_228" data-name="Group 228" transform="translate(29.71 -763.232)">
    <path id="Path_1327" data-name="Path 1327" d="M38.243,63.96a11.406,11.406,0,0,1-6.223-1.907A8.989,8.989,0,0,1,28.7,58.539Q26.961,55.056,26.575,47.2c-.039-.847-.057-1.8-.057-2.848q0-5.365,1.078-17.065a127.623,127.623,0,0,0,.748-12.885A43.687,43.687,0,0,0,27.764,7a3.41,3.41,0,0,0-.279-1.162,8.288,8.288,0,0,0-.58.745q-2.932,4.4-5.779,14.879l-1.244,4.728Q14.765,45.737,12.636,47.81a7.971,7.971,0,0,1-2.406,1.022,11.553,11.553,0,0,1-2.848.279A8.785,8.785,0,0,1,2.6,47.975a2.846,2.846,0,0,1-1.493-2.268,7.736,7.736,0,0,0-.222-1.352,40.02,40.02,0,0,1-.745-5.174Q0,37.771,0,35.67q0-4.285,1.078-16.976.167-2.216.165-8.989A2.994,2.994,0,0,1,2.875,8.626a9.641,9.641,0,0,1,1.66-.084,9.748,9.748,0,0,1,2.709.306q3.316.938,4.4,2.544a4.39,4.39,0,0,1,.691,2.5q.027,1.563.027,1.839,0,2.848-.5,8.6-.775,9.79-.772,13.8c0,.791.018,1.409.054,1.851a7.386,7.386,0,0,0,.276,2.048q.054,0,2.046-6.746,1.053-3.626,2.462-9.682,1.217-5.087,1.935-7.824,1.162-4.285,2.766-8.488,1.135-2.932,2.1-4.841a15.44,15.44,0,0,1,1.8-2.569Q26.1,0,27.293,0a10.558,10.558,0,0,1,4.784,1.133,10.741,10.741,0,0,1,5.364,5.792q1.549,3.887,1.549,11.628,0,4.176-.72,13.053Q37.5,41,37.5,44.518q0,3.928.195,5.836.55,5.916,1.52,7.854l.36.775.276-.358q1.6-1.828,2.931-7.8.333-1.519.526-2.1a1.093,1.093,0,0,1,1.051-.494,2.007,2.007,0,0,1,1.216.494,120.807,120.807,0,0,1-2.931,12.2,4.66,4.66,0,0,1-1.493,2.324,5.166,5.166,0,0,1-2.9.718" transform="translate(-13.395 790.653) rotate(-19)" fill="#fff"/>
    <path id="Path_1328" data-name="Path 1328" d="M11.531,33.156a11.02,11.02,0,0,1-6.581-2.4A12.025,12.025,0,0,1,1.59,26.326,15.488,15.488,0,0,1,0,19.246Q0,8.685,4.728,3.541A19.441,19.441,0,0,1,8.046.886,8.511,8.511,0,0,1,11.753,0a8.931,8.931,0,0,1,4.535,1.327A7.966,7.966,0,0,1,19.715,5.2a5.814,5.814,0,0,1,.249,1.742,7.113,7.113,0,0,1-.3,2.129q-2.049,5.478-8.241,9.816a1.6,1.6,0,0,0-.387.36,13.152,13.152,0,0,0-.111,2.573,17.229,17.229,0,0,0,.417,3.43q.578,2.763.967,4.064c.073.514.22.775.442.775q2.793,0,8.434-10.758a23.08,23.08,0,0,1,1.633-2.848.709.709,0,0,1,.415-.3c1.124.052,1.685.331,1.685.827a20.106,20.106,0,0,1-.775,1.91q-1.492,3.4-2.268,4.977-3.374,6.636-6.248,8.352a8.519,8.519,0,0,1-4.093.911m-.138-17.448.748-.609A17.3,17.3,0,0,0,16.895,8.13a5.377,5.377,0,0,0,.3-1.824,3.375,3.375,0,0,0-.634-2.379.4.4,0,0,0-.276-.138c-.111.018-.276.174-.5.469a5.3,5.3,0,0,0-1,1.384,36.778,36.778,0,0,0-1.631,3.871,42.259,42.259,0,0,0-1.409,4.368,10.3,10.3,0,0,1-.236,1.081,1.616,1.616,0,0,0-.1.442.566.566,0,0,1-.054.249q0,.054.027.054" transform="translate(32.257 787.419) rotate(-19)" fill="#fff"/>
    <path id="Path_1329" data-name="Path 1329" d="M33.378,37.994a12.318,12.318,0,0,1-9.154-3.706,15.608,15.608,0,0,1-4.2-8.848,8.453,8.453,0,0,0-.138-.859,3.746,3.746,0,0,1-.084-.415l-.607,1.549q-2.545,6.8-4.977,7.689a6.611,6.611,0,0,1-2.186.331,12.649,12.649,0,0,1-5-1.162Q0,28.982,0,20.214a47.192,47.192,0,0,1,1.051-9.1q1.6-7.469,4.535-9.236a5.661,5.661,0,0,1,2.9-.775,7.664,7.664,0,0,1,2.349.387q3.649,1.162,3.652,3.457a17.066,17.066,0,0,1-1,3.455A39.309,39.309,0,0,0,11.089,20.6l-.027,1.991a20.841,20.841,0,0,0,.415,4.2A8.847,8.847,0,0,0,12.14,29.2q.167,0,1.078-1.022,2.905-3.32,6.223-12.8a5.792,5.792,0,0,0,.3-1.937,54.582,54.582,0,0,1,.994-7.854,4.014,4.014,0,0,1,1.246-2.419A3.573,3.573,0,0,1,24.2,2.517a8.906,8.906,0,0,1,4.315,1.049q2.6,1.414,2.737,3.264l.027.775a20.464,20.464,0,0,1-.138,2.073Q30.5,16.589,30.5,20.71a22.414,22.414,0,0,0,1.357,8.656q1.767,4.149,1.824,4.148.194,0,1.438-1.382,4.01-4.424,5.7-14.213a38.933,38.933,0,0,0,.553-7.025q0-4.754-.5-5.863a11.381,11.381,0,0,1-.442-1.769,6.247,6.247,0,0,0-.444-1.937,2.819,2.819,0,0,1-.193-.856q0-.469.913-.469a2.418,2.418,0,0,1,1.658.5q.608.775,1.647,4.936A31.576,31.576,0,0,1,45.046,13a43.814,43.814,0,0,1-3.566,17.477,16.394,16.394,0,0,1-3.375,5.419,7,7,0,0,1-2.184,1.66,6.434,6.434,0,0,1-2.544.442" transform="translate(52.609 777.898) rotate(-19)" fill="#fff"/>
    <path id="Path_1330" data-name="Path 1330" d="M41.526,77.321h-.333c-1.738,0-2.863-.548-3.375-1.654q-.917-1.906-1.25-11.637-.18-5.651-.292-15.053-4.883,0-8.52.222-1.023.109-11.2.734a14.194,14.194,0,0,0-1.47.147c-.05.023-.07.111-.07.258q0,1.832.55,7.156.4,2.831.55,3.634.18,1.617.181,2.132a6.209,6.209,0,0,1-1.323,2.9A3.279,3.279,0,0,1,12.6,67.317c-.981.059-1.595.091-1.835.091a10.89,10.89,0,0,1-7.05-2.569,6.337,6.337,0,0,1-1.873-2.114A16.446,16.446,0,0,1,.92,58.779,84.554,84.554,0,0,1,.039,47.4L0,42.554Q0,35.8.186,32.567,1.249,13.915,2.644,6.388A8.692,8.692,0,0,1,3.491,3.6,2.77,2.77,0,0,1,5.636,2.481c.822-.014,1.289-.018,1.414-.018a14.391,14.391,0,0,1,4.481.77,11.293,11.293,0,0,1,4.186,2.383A3.4,3.4,0,0,1,16.725,6.9a4.738,4.738,0,0,1,.238,1.651q0,1.76-.661,7.086A222.069,222.069,0,0,0,14.87,40.5v4.329q2.239-.289,7.05-.476,4.074-.109,7.858-.111,3.779.041,5.21.222c.786.1,1.248.147,1.4.147l.181-9.877Q37.121,5.18,38.479,1.176A1.693,1.693,0,0,1,39.009.2a1.492,1.492,0,0,1,.825-.2Q42.477,0,43.1,1.946a23.309,23.309,0,0,1,.514,6.166q0,5.328-.294,14.981-.37,11.349-.367,25.811,0,7.894.217,12.335.184,4.628.184,10.427,0,4.482-.584,5.14a1.57,1.57,0,0,1-1.248.514" transform="translate(-29.71 845.832) rotate(-19)" fill="#fff"/>
    <path id="Path_1331" data-name="Path 1331" d="M36.017,57.275a11.691,11.691,0,0,1-3.672-.661q-9.474-2.939-11.823-17.622a47.82,47.82,0,0,1-.367-5.876l-.661,1.028q-2.861,4.628-5.285,5.435a6.359,6.359,0,0,1-2.021.292,11.079,11.079,0,0,1-4.662-1.1Q0,35.137,0,25.587A25.743,25.743,0,0,1,1.946,15.42q3.119-7.455,8.223-9.107a7.6,7.6,0,0,1,2.607-.439,15.874,15.874,0,0,1,8.37,2.863,15.594,15.594,0,0,1,1.871,1.429,4.468,4.468,0,0,0,1.1.847l.587-1.543a30.608,30.608,0,0,1,1.173-3.23Q28.379,0,32.639,0a7.237,7.237,0,0,1,2.569.514Q40.237,2.2,40.237,7.05a15.236,15.236,0,0,1-.623,4.037A155.306,155.306,0,0,0,35.629,27.7a86.407,86.407,0,0,0-.972,13.64q0,3.928.057,5.58a22.509,22.509,0,0,0,.714,4.368c.147.614.27.92.367.92a6.346,6.346,0,0,0,1.837-1.284Q43.65,45.231,49.233,25q.88-3.449,1.155-3.559a4.689,4.689,0,0,1,1.341-.113q2.5,0,2.5.589,0,1.176-2.093,8.629-3.782,14.724-9.288,22.47-2.973,4.258-6.828,4.259m-23.168-22.1q2.644-1.872,6.683-7.6a6.147,6.147,0,0,0,1.321-2.5q.442-3.123,2.2-10.391A13.151,13.151,0,0,0,22.028,12.7a9.861,9.861,0,0,0-2.718-2.349,2.83,2.83,0,0,0-1.284-.514q-.846,0-1.726,3.267-.989,3.745-1.835,7.822-.625,2.939-1.119,7.047a61.042,61.042,0,0,0-.5,7.2" transform="translate(21.172 847.107) rotate(-19)" fill="#fff"/>
    <path id="Path_1332" data-name="Path 1332" d="M24.744,72.987a14.822,14.822,0,0,1-6.314-1.4,9.216,9.216,0,0,1-5.582-8.957l-.954-.147a11.332,11.332,0,0,1-5.342-2.021A12.438,12.438,0,0,1,2.2,54.851,22.156,22.156,0,0,1,.478,49.382,41.671,41.671,0,0,1,0,42.441,87.429,87.429,0,0,1,1.615,27.093Q4.33,12.666,9.73,5.471q3.3-4.4,6.608-5.217A13.984,13.984,0,0,1,19.348,0,11.911,11.911,0,0,1,26.6,2.644q3.507,2.64,3.507,5.432l.036.734a14.426,14.426,0,0,1-.917,4.259A35.674,35.674,0,0,1,22.762,24.23a43.889,43.889,0,0,1-7.047,7.122q-.7,3.819-.956,6.9T14.244,44.5l.881-2.2q3.34-8.957,6.647-12.629a23.55,23.55,0,0,1,3.486-3.305,3.724,3.724,0,0,1,1.982-.514,9.651,9.651,0,0,1,4.114,1.176q5.838,2.865,8.479,12.962L40.9,45.232q3.748-2.314,5.985-8.006a.707.707,0,0,1,.661-.439,16.961,16.961,0,0,1,2.166.22q1.213.187,1.212.7a22.252,22.252,0,0,1-2.349,5.512A20.548,20.548,0,0,1,41.12,50.37a32.82,32.82,0,0,1-1.543,7.639,41.969,41.969,0,0,1-4.186,8.957,15.14,15.14,0,0,1-7.342,5.507,14.586,14.586,0,0,1-3.305.514M16.816,56.208a1.086,1.086,0,0,0,.439-.256q1.764-1.288,7.784-3.083a28.7,28.7,0,0,0,2.9-.99q.221-.221.406-10.98,0-9.691-.589-9.691a11.6,11.6,0,0,0-2.292,2.236A27.429,27.429,0,0,0,21.2,40.9a72.82,72.82,0,0,0-3.8,11.97,28.266,28.266,0,0,1-.661,3.192c0,.1.025.147.075.147m.806-32.564a7.677,7.677,0,0,0,1.359-1.468,38.767,38.767,0,0,0,5.065-7.711A18.685,18.685,0,0,0,26.14,7.636l-.734.99q-1.651,2.718-3.011,4.59A38.757,38.757,0,0,0,19.974,17.4a46.472,46.472,0,0,0-2.351,5.947ZM20.413,69.1a3.013,3.013,0,0,0,1.321-.367,9.7,9.7,0,0,0,3.93-4.846,28.956,28.956,0,0,0,1.119-3.711,18.055,18.055,0,0,0,.68-3.781c0-.1-.063-.145-.183-.145a1.221,1.221,0,0,0-.24.036q-.163.037-.6.183t-1.176.367a12.751,12.751,0,0,0-3.6,1.688A7.166,7.166,0,0,0,18.284,63a9.1,9.1,0,0,0-.22,1.907,5.369,5.369,0,0,0,1.173,3.525,1.546,1.546,0,0,0,1.176.661" transform="translate(62.873 816.207) rotate(-19)" fill="#fff"/>
    <path id="Path_1333" data-name="Path 1333" d="M14.87,49.344a15.727,15.727,0,0,1-7.931-2.349,14.345,14.345,0,0,1-4.918-4.773Q0,38.772,0,31.5A62.356,62.356,0,0,1,2.46,15.2q1.026-3.965,2.184-4.993t4.2-1.028a10.49,10.49,0,0,1,3.158.367q5.471,1.543,5.471,5.065A31.027,31.027,0,0,1,16.412,21a64.162,64.162,0,0,0-1.726,13.438q0,1.543.258,4.626a24.751,24.751,0,0,0,.659,4.773,9.3,9.3,0,0,0,1.176-.734q5.359-3.965,10.536-21.185c.122-.439.342-.657.661-.657a9.571,9.571,0,0,1,1.726.292c.757.195,1.137.453,1.137.77a85.043,85.043,0,0,1-5.029,15.934,36.566,36.566,0,0,1-2.938,5.654q-3.67,5.4-8,5.432m1.4-42.917a9.012,9.012,0,0,1-5.36-1.672Q8.554,3.087,8.556,1.543a.969.969,0,0,1,.256-.55A2.354,2.354,0,0,1,9.8.367,5.529,5.529,0,0,1,11.42,0q4.808,0,6.9,3.745a3.005,3.005,0,0,1,.367,1.284q0,1.4-2.424,1.4" transform="translate(111.186 815.334) rotate(-19)" fill="#fff"/>
    <path id="Path_1334" data-name="Path 1334" d="M44.423,69.609a11.322,11.322,0,0,1-1.651-.111A14.794,14.794,0,0,1,33.74,63.55Q30.216,58.959,30.215,44.2q0-8.335.367-12.006.442-4.7,1.321-11.676,1.213-7.306,2.129-10.942l.075-.514c0-.1-.344-.2-1.028-.292L23.938,7.559q-7.272-.917-9.582-.915Q6.571,7.157,3.6,10.72a2.386,2.386,0,0,1-1.762.7C.612,11.415,0,10.867,0,9.761Q.258,6.72,4.442,4.735a25.061,25.061,0,0,1,10.169-1.8,137.947,137.947,0,0,1,14.1,1.357l6.719.956q1.91-3.561,4.259-4.334A11.545,11.545,0,0,1,41.3.843q5.287,0,7.124,4.368l.22,1.4q2.569.146,4.259.147a71.944,71.944,0,0,0,9.546-.664Q74.235,4.328,74.86.843A2.084,2.084,0,0,1,76.437,0q1.434,0,1.432,1.577,0,2.79-3.008,4.737A16.4,16.4,0,0,1,70.38,8.37,70.4,70.4,0,0,1,51.8,10.427l-2.791-.077q-.187,1.835-1.835,9.07A178.5,178.5,0,0,0,45.121,38l-.072,3.745a122.843,122.843,0,0,0,1.5,19.312,14.544,14.544,0,0,0,.4,2.863l.294-.147.514-.587a50.337,50.337,0,0,0,6.608-13.216q.588-1.73,3.122-8.259a5.636,5.636,0,0,1,.881-1.581,1.728,1.728,0,0,1,1.1-.258,2.292,2.292,0,0,1,1.688.587c.1.1.147.174.147.224a63.845,63.845,0,0,1-2.018,7.011q-1.651,5.321-4.406,11.9-2.973,6.9-4.993,8.59a6.377,6.377,0,0,1-4.479,1.4Z" transform="translate(102.645 800.222) rotate(-19)" fill="#fff"/>
    <path id="Path_1335" data-name="Path 1335" d="M27.682,44.865a12,12,0,0,1-1.468-.072,10.737,10.737,0,0,1-4.039-1.543q-4.186-2.168-4.186-5.287,0-.955.589-.954a5.428,5.428,0,0,1,2.277.439A2.663,2.663,0,0,1,22.69,39.8a1.869,1.869,0,0,0,.587,1.1,1.683,1.683,0,0,0,1.248.659,9.4,9.4,0,0,0,1.468-.22,6.882,6.882,0,0,0,3.158-3.158,12.175,12.175,0,0,0,1.762-6.241c0-1.223-.025-2.032-.073-2.422a2.583,2.583,0,0,0-.661-1.47.5.5,0,0,0-.367-.147q-1.91,0-9.252,4.039A34.222,34.222,0,0,1,14.172,35.1a13.246,13.246,0,0,1-2.129.147,13.844,13.844,0,0,1-8.885-4.334A11.748,11.748,0,0,1,0,22.837,30.745,30.745,0,0,1,6.975,6.463Q10.794,1.91,17.917.367A21.072,21.072,0,0,1,22.4,0,16.429,16.429,0,0,1,29,1.1,15.386,15.386,0,0,1,32.97,3.745a7.764,7.764,0,0,1,2.277,3.378,11.885,11.885,0,0,1,.806,4.626,20.449,20.449,0,0,1-.881,5.435q-1.247,3.67-2.644,3.672a2.559,2.559,0,0,1-1.1-.333,5.669,5.669,0,0,1-1.176-.77,1.172,1.172,0,0,1-.512-.806,10.173,10.173,0,0,1,.659-2.2,23.848,23.848,0,0,0,1.1-6.61,10.655,10.655,0,0,0-.661-3.892c-.172-.462-.344-.734-.514-.806q-3.011,0-6.021,2.936-.955.958-4.186,4.993a29.648,29.648,0,0,0-6.094,13.88,10.993,10.993,0,0,0-.111,1.21l.039.186,6.461-2.129a22.869,22.869,0,0,1,6.755-1.762,8.728,8.728,0,0,1,2.2.22,18.1,18.1,0,0,1,2.055.734q4.92,2.61,4.92,8.737a10.774,10.774,0,0,1-1.837,6.169q-2.715,4.261-6.828,4.259" transform="translate(162.926 800.391) rotate(-19)" fill="#fff"/>
  </g>
</svg>
