<svg xmlns="http://www.w3.org/2000/svg" xmlns:xlink="http://www.w3.org/1999/xlink" width="87.572" height="102.243" viewBox="0 0 87.572 102.243">
  <defs>
    <clipPath id="clip-path">
      <rect id="Rectangle_1826" data-name="Rectangle 1826" width="87.572" height="102.243" fill="none"/>
    </clipPath>
    <clipPath id="clip-path-3">
      <rect id="Rectangle_1824" data-name="Rectangle 1824" width="35.083" height="46.894" fill="none"/>
    </clipPath>
  </defs>
  <g id="Group_4311" data-name="Group 4311" clip-path="url(#clip-path)">
    <g id="Group_4310" data-name="Group 4310" transform="translate(0 0)">
      <g id="Group_4309" data-name="Group 4309" clip-path="url(#clip-path)">
        <path id="Path_3844" data-name="Path 3844" d="M74.926,44.449A37.463,37.463,0,1,1,37.463,6.985,37.464,37.464,0,0,1,74.926,44.449" transform="translate(0 0.663)" fill="#f6cb4e"/>
        <path id="Path_3845" data-name="Path 3845" d="M57.682,38.437c-2.337.319-4.6,1.164-6.953,1.249-4.809.174-9.525-2.822-14.216-1.749-3.62.829-6.345,4.006-7.595,7.5s-1.259,7.3-1.135,11.012.361,7.472-.435,11.1c-.888,4.043-3.01,7.693-4.425,11.582s-2.061,8.414-.051,12.032c1.8,3.236,5.369,5.09,8.929,6.1,9.743,2.757,20.62.289,28.774-5.713s13.631-15.27,15.867-25.146c1.157-5.112,2.355-12,.412-17.093-1.442-3.779-5.977-6.881-9.321-8.813a15.644,15.644,0,0,0-9.851-2.062" transform="translate(2.051 3.58)" fill="#fff"/>
        <path id="Path_3846" data-name="Path 3846" d="M57.682,38.437c-2.337.319-4.6,1.164-6.953,1.249-4.809.174-9.525-2.822-14.216-1.749-3.62.829-6.345,4.006-7.595,7.5s-1.259,7.3-1.135,11.012.361,7.472-.435,11.1c-.888,4.043-3.01,7.693-4.425,11.582s-2.061,8.414-.051,12.032c1.8,3.236,5.369,5.09,8.929,6.1,9.743,2.757,20.62.289,28.774-5.713s13.631-15.27,15.867-25.146c1.157-5.112,2.355-12,.412-17.093-1.442-3.779-5.977-6.881-9.321-8.813A15.644,15.644,0,0,0,57.682,38.437Z" transform="translate(2.051 3.58)" fill="none" stroke="#020046" stroke-linecap="round" stroke-linejoin="round" stroke-width="0.5"/>
        <path id="Path_3847" data-name="Path 3847" d="M10.326,57.314c.089-6.023-.738-12.112.345-18.038.32-1.75,1.115-3.776,2.863-4.107,1.627-.308,3.129,1.153,3.616,2.736a20.048,20.048,0,0,1,.355,4.938,6.5,6.5,0,0,0,.953,3.384,3.187,3.187,0,0,0,3.036,1.463,3.491,3.491,0,0,0,2.288-1.821,15.687,15.687,0,0,0,1.07-2.821,20.228,20.228,0,0,1,5.573-8.521A7.859,7.859,0,0,1,34,32.467a3.6,3.6,0,0,1,3.709,1.312,3.722,3.722,0,0,1,.247,3.182,11,11,0,0,1-1.642,2.851l-4.847,6.751c-.975,1.358-2,3.031-1.4,4.592a3.721,3.721,0,0,0,2.71,2.055,29.378,29.378,0,0,0,3.517.37,5.313,5.313,0,0,1,2.69.95,2.578,2.578,0,0,1,1.023,2.535c-.385,1.564-2.329,2.042-3.921,2.281a40.425,40.425,0,0,0-14.371,4.535c-4.374,2.53-8.095,6.459-9.586,11.288-.475,1.538-.944,3.747-2.71,4.294-1.809.561-4.022-1.191-4.435-2.932-.4-1.7.832-3.389,1.648-4.766A24,24,0,0,0,9.374,65.33a35.024,35.024,0,0,0,.953-8.016" transform="translate(0.466 3.075)" fill="#4450e6"/>
        <g id="Group_4308" data-name="Group 4308" transform="translate(5.415 35.577)" style="mix-blend-mode: multiply;isolation: isolate">
          <g id="Group_4307" data-name="Group 4307">
            <g id="Group_4306" data-name="Group 4306" clip-path="url(#clip-path-3)">
              <path id="Path_3848" data-name="Path 3848" d="M39.6,54.647a2.349,2.349,0,0,0-.3-1.2A100.37,100.37,0,0,0,23.8,57.115a23.769,23.769,0,0,0-7.908,3.847c-3.705,3.032-5.243,7.471-5.879,10.663a34.713,34.713,0,0,0-.6,5.649A3.224,3.224,0,0,0,10.711,75.9a30.89,30.89,0,0,1,.507-4.033c.6-2.994,2.028-7.149,5.451-9.949a22.723,22.723,0,0,1,7.508-3.629A99.306,99.306,0,0,1,39.6,54.647" transform="translate(-4.522 -30.503)" fill="#bec6e3"/>
              <path id="Path_3849" data-name="Path 3849" d="M13.639,34.921c-.037.005-.072,0-.109.007a2.525,2.525,0,0,0-1.082.5A73.746,73.746,0,0,1,9.141,65.854c-.149.509-.313,1.01-.5,1.5a72.811,72.811,0,0,1-3.7,8.67c.013.09.012.18.034.269a3.578,3.578,0,0,0,.595,1.242,75.123,75.123,0,0,0,8.065-42.612" transform="translate(-4.946 -32.262)" fill="#bec6e3"/>
              <path id="Path_3850" data-name="Path 3850" d="M27.106,45.212c3.289-3.919,6.649-7.962,9.671-12.224a3.481,3.481,0,0,0-1.156-.5c-2.957,4.144-6.243,8.095-9.459,11.927-2.659,3.168-5.408,6.444-7.937,9.806C11.637,62.981,7.772,71.064,6.471,78.8a4.061,4.061,0,0,0,1.145.584c1.2-7.655,5.019-15.682,11.592-24.418,2.512-3.337,5.249-6.6,7.9-9.756" transform="translate(-4.801 -32.492)" fill="#bec6e3"/>
            </g>
          </g>
        </g>
        <path id="Path_3851" data-name="Path 3851" d="M46.836,35.055a6.332,6.332,0,0,1-4.993-2.15A10.523,10.523,0,0,1,40.1,29.04a8.915,8.915,0,0,0-1.61-3.533c-1.164-1.3-3.276-1.9-5.8-1.636-.953.1-1.924.3-2.864.486a24.392,24.392,0,0,1-3.931.569c-.137.005-.274.008-.412.008A12.84,12.84,0,0,1,13.42,15.881,12.826,12.826,0,0,1,19.175,1.586l.62,1.068A11.713,11.713,0,0,0,14.605,15.54a11.718,11.718,0,0,0,11.248,8.154,23.1,23.1,0,0,0,3.732-.547c.968-.195,1.969-.4,2.979-.5,1.714-.183,4.886-.154,6.848,2.038a9.99,9.99,0,0,1,1.871,4.008,9.435,9.435,0,0,0,1.511,3.429c1.652,2,4.73,2.072,6.919,1.1,2.442-1.081,4.241-3.214,5.821-5.356.269-.367.539-.738.806-1.109a26.422,26.422,0,0,1,4.647-5.353,13.469,13.469,0,0,1,19.65,3.034l-1.026.684A12.238,12.238,0,0,0,61.76,22.367a25.47,25.47,0,0,0-4.42,5.113c-.27.374-.54.749-.814,1.119-1.6,2.171-3.6,4.552-6.315,5.752a8.443,8.443,0,0,1-3.376.7" transform="translate(1.231 0.15)" fill="#fff"/>
        <path id="Path_3852" data-name="Path 3852" d="M81.057,62.214q-10.633-7.9-21.6-15.326a2.467,2.467,0,1,0-2.489,4.259q10.965,7.429,21.6,15.326a2.483,2.483,0,0,0,3.375-.885,2.525,2.525,0,0,0-.885-3.375" transform="translate(5.293 4.419)" fill="#f6cb4e"/>
        <path id="Path_3853" data-name="Path 3853" d="M78.707,69.814,54.849,53.654a2.467,2.467,0,1,0-2.49,4.259l23.858,16.16a2.467,2.467,0,0,0,2.49-4.259" transform="translate(4.856 5.061)" fill="#f6cb4e"/>
        <path id="Path_3854" data-name="Path 3854" d="M74.529,75.2c-8.041-5.545-16.476-10.5-24.814-15.58-2.718-1.656-5.2,2.608-2.49,4.259C55.564,68.955,64,73.912,72.04,79.457a2.489,2.489,0,0,0,3.374-.885,2.516,2.516,0,0,0-.885-3.375" transform="translate(4.373 5.625)" fill="#f6cb4e"/>
        <path id="Path_3855" data-name="Path 3855" d="M51.252,33.059a1.225,1.225,0,0,0-.318-.544l-.25-.193a1.228,1.228,0,0,0-.622-.169H49.9a.933.933,0,0,0-.475.106,1.27,1.27,0,0,0-.758,1.127c.014.109.028.219.044.328a1.225,1.225,0,0,0,.318.544l.249.193a1.232,1.232,0,0,0,.623.169h.159a.944.944,0,0,0,.475-.106,1.269,1.269,0,0,0,.758-1.128c-.014-.108-.028-.218-.044-.327" transform="translate(4.621 3.053)" fill="#4450e6"/>
        <path id="Path_3856" data-name="Path 3856" d="M55.331,33.192a1.234,1.234,0,0,0,0,2.467,1.234,1.234,0,0,0,0-2.467" transform="translate(5.141 3.151)" fill="#4450e6"/>
        <path id="Path_3857" data-name="Path 3857" d="M49.228,38.423a1.234,1.234,0,0,0,0,2.466,1.234,1.234,0,0,0,0-2.466" transform="translate(4.561 3.648)" fill="#4450e6"/>
        <path id="Path_3858" data-name="Path 3858" d="M54.825,38.248a1.233,1.233,0,0,0-.316-.544l-.251-.193a1.228,1.228,0,0,0-.622-.169h-.159a.933.933,0,0,0-.475.106,1.267,1.267,0,0,0-.758,1.127c.014.109.03.219.044.328a1.225,1.225,0,0,0,.318.544l.249.193a1.232,1.232,0,0,0,.623.169h.159a.944.944,0,0,0,.475-.106,1.269,1.269,0,0,0,.758-1.128c-.014-.108-.028-.218-.044-.327" transform="translate(4.96 3.545)" fill="#4450e6"/>
        <path id="Path_3859" data-name="Path 3859" d="M58.9,38.38a1.234,1.234,0,0,0,0,2.467,1.234,1.234,0,0,0,0-2.467" transform="translate(5.48 3.644)" fill="#4450e6"/>
        <path id="Path_3860" data-name="Path 3860" d="M52.8,43.612a1.234,1.234,0,0,0,0,2.466,1.234,1.234,0,0,0,0-2.466" transform="translate(4.9 4.141)" fill="#4450e6"/>
        <path id="Path_3861" data-name="Path 3861" d="M34.113,19.363c2.807.235,5.938.856,7.508,3.2.864,1.284,1.19,3.012,2.484,3.86a4.583,4.583,0,0,0,4.141-.021,13.335,13.335,0,0,0,8.075-10.009A13.335,13.335,0,0,0,51.919,4.3C43.87-2.575,19.33-1.513,24.07,13.827c1.428,4.622,5.86,5.185,10.043,5.536" transform="translate(2.228 0.024)" fill="#fff"/>
        <path id="Path_3862" data-name="Path 3862" d="M34.113,19.363c2.807.235,5.938.856,7.508,3.2.864,1.284,1.19,3.012,2.484,3.86a4.583,4.583,0,0,0,4.141-.021,13.335,13.335,0,0,0,8.075-10.009A13.335,13.335,0,0,0,51.919,4.3C43.87-2.575,19.33-1.513,24.07,13.827,25.5,18.449,29.93,19.012,34.113,19.363Z" transform="translate(2.228 0.024)" fill="none" stroke="#020046" stroke-linecap="round" stroke-linejoin="round" stroke-width="0.5"/>
      </g>
    </g>
  </g>
</svg>
