<svg xmlns="http://www.w3.org/2000/svg" xmlns:xlink="http://www.w3.org/1999/xlink" width="97.562" height="100.824" viewBox="0 0 97.562 100.824">
  <defs>
    <clipPath id="clip-path">
      <rect id="Rectangle_1866" data-name="Rectangle 1866" width="97.562" height="100.824" fill="none"/>
    </clipPath>
    <clipPath id="clip-path-2">
      <rect id="Rectangle_1865" data-name="Rectangle 1865" width="97.561" height="100.824" fill="none"/>
    </clipPath>
    <clipPath id="clip-path-3">
      <rect id="Rectangle_1864" data-name="Rectangle 1864" width="40.102" height="48.519" fill="none"/>
    </clipPath>
  </defs>
  <g id="Group_4424" data-name="Group 4424" clip-path="url(#clip-path)">
    <g id="Group_4423" data-name="Group 4423" transform="translate(0 0)">
      <g id="Group_4422" data-name="Group 4422" clip-path="url(#clip-path-2)">
        <path id="Path_4082" data-name="Path 4082" d="M10.613,52.114A37.357,37.357,0,1,1,47.97,89.471,37.357,37.357,0,0,1,10.613,52.114" transform="translate(0.975 1.355)" fill="#fff"/>
        <path id="Path_4083" data-name="Path 4083" d="M10.613,52.114A37.357,37.357,0,1,1,47.97,89.471,37.357,37.357,0,0,1,10.613,52.114Z" transform="translate(0.975 1.355)" fill="none" stroke="#080046" stroke-linecap="round" stroke-linejoin="round" stroke-width="0.5"/>
        <path id="Path_4084" data-name="Path 4084" d="M61.489,81.116c3.97-8.274,5.385-17.983,2.722-26.765S54.471,37.968,45.554,35.8c-7.743-1.883-16.144.421-22.6,5.095S11.849,52.4,8.688,59.719C5.808,66.386,4.079,74,6.368,80.893c2.62,7.89,10.217,13.408,18.307,15.325,14.513,3.44,30.066-1.037,36.815-15.1" transform="translate(0.488 3.227)" fill="#fff"/>
        <path id="Path_4085" data-name="Path 4085" d="M61.489,81.116c3.97-8.274,5.385-17.983,2.722-26.765S54.471,37.968,45.554,35.8c-7.743-1.883-16.144.421-22.6,5.095S11.849,52.4,8.688,59.719C5.808,66.386,4.079,74,6.368,80.893c2.62,7.89,10.217,13.408,18.307,15.325C39.187,99.659,54.741,95.181,61.489,81.116Z" transform="translate(0.488 3.227)" fill="none" stroke="#080046" stroke-linecap="round" stroke-linejoin="round" stroke-width="0.5"/>
        <path id="Path_4086" data-name="Path 4086" d="M65.536,49.22A11.991,11.991,0,0,0,51.594,31.07a12.16,12.16,0,0,0-7.679,11.912,12.515,12.515,0,0,0,6.544,9.875A11.753,11.753,0,0,0,65.536,49.22" transform="translate(4.031 2.789)" fill="#4951e0"/>
        <path id="Path_4087" data-name="Path 4087" d="M68.746,64.7c2.484-1.629,5.49-2.915,8.37-2.191,2.315.582,4.185,2.382,6.51,2.924,3.235.753,6.73-1.3,8.152-4.3a10.738,10.738,0,0,0-.62-9.578,18.894,18.894,0,0,0-7.075-6.85c-7.1-4.243-16.24-5.4-23.791-2.022-6.72,3.006-11.167,9.543-12.4,16.7-1.056,6.153,2.556,10.334,8.847,10.639C61.578,70.261,64.955,67.189,68.746,64.7Z" transform="translate(4.382 3.739)" fill="none" stroke="#000" stroke-miterlimit="10" stroke-width="1"/>
        <path id="Path_4088" data-name="Path 4088" d="M.6,49.165a28.518,28.518,0,0,0,9.916,10.562A28.913,28.913,0,0,0,27.4,64.09a32.234,32.234,0,0,0-13.14-9.475,25.754,25.754,0,0,0,19.984-2.442A23.175,23.175,0,0,0,23.6,49.238a26.206,26.206,0,0,0,13.35-8.708,23.83,23.83,0,0,0-13.587,1.264,51.315,51.315,0,0,0,16.74-17.117,33.046,33.046,0,0,0-21.179,10.4A50.383,50.383,0,0,0,27.419,15.6c-.091.459-4.6,2.108-5.238,2.463a45.584,45.584,0,0,0-5.061,3.26,47.11,47.11,0,0,0-8.658,8.348A46.546,46.546,0,0,0,2.255,39.826C.976,42.7-1,46.161.6,49.165" transform="translate(0 1.432)" fill="#e9c959"/>
        <g id="Group_4421" data-name="Group 4421" transform="translate(0.005 17.029)" style="mix-blend-mode: multiply;isolation: isolate">
          <g id="Group_4420" data-name="Group 4420">
            <g id="Group_4419" data-name="Group 4419" clip-path="url(#clip-path-3)">
              <path id="Path_4089" data-name="Path 4089" d="M3.283,41.18c-.574.056-1.15.091-1.725.129-.19.416-.379.837-.558,1.265.148-.008.3-.011.445-.021-.2.148-.407.283-.61.428A14.212,14.212,0,0,0,.207,44.92c1.191-.8,2.38-1.64,3.562-2.556A58.474,58.474,0,0,0,32.894,30.942c2.471-1.876,4.8-3.967,7.061-6.056.043-.071.091-.138.132-.207-.666.056-1.329.141-1.989.24-1.918,1.751-3.888,3.48-5.948,5.043A57.138,57.138,0,0,1,5.566,40.9c2.132-1.76,4.257-3.681,6.383-5.814a181.628,181.628,0,0,0,15.068-17.81c.132-.56.271-1.118.383-1.684-.031.15-.53.426-1.209.741A182.026,182.026,0,0,1,11.076,34.223,84.788,84.788,0,0,1,3.283,41.18" transform="translate(0.014 -15.597)"/>
              <path id="Path_4090" data-name="Path 4090" d="M2.219,49.045a125.405,125.405,0,0,0,23.6,12.233c.508,0,1.017,0,1.524-.024-.3-.365-.62-.713-.937-1.063a124.36,124.36,0,0,1-25.77-13.7,26.856,26.856,0,0,0,1.586,2.554" transform="translate(0.053 -12.76)"/>
              <path id="Path_4091" data-name="Path 4091" d="M36.074,38.3A64.16,64.16,0,0,1,.044,43.9,5.572,5.572,0,0,0,.336,46.5a74.6,74.6,0,0,0,31.842,4.653c.7-.326,1.394-.676,2.064-1.069-.187-.106-.381-.2-.571-.3A73.287,73.287,0,0,1,.287,45.177,65.484,65.484,0,0,0,35.771,39.8c.408-.438.807-.885,1.181-1.353-.292-.06-.585-.1-.879-.147" transform="translate(-0.005 -13.512)"/>
            </g>
          </g>
        </g>
        <path id="Path_4092" data-name="Path 4092" d="M50.472,29.218a1.23,1.23,0,0,0,2.459,0q.192-13.091-.225-26.179c-.051-1.579-2.51-1.585-2.46,0q.416,13.086.226,26.179" transform="translate(4.614 0.17)" fill="#4951e0"/>
        <path id="Path_4093" data-name="Path 4093" d="M45.389,28.675a1.23,1.23,0,0,0,2.459,0q.278-13.747-.347-27.489c-.072-1.577-2.532-1.585-2.46,0q.627,13.736.348,27.489" transform="translate(4.136 0)" fill="#4951e0"/>
        <path id="Path_4094" data-name="Path 4094" d="M39.692,29.248c-.064,1.582,2.4,1.58,2.459,0A235.813,235.813,0,0,0,41.641,1.4c-.121-1.568-2.581-1.581-2.459,0a235.813,235.813,0,0,1,.51,27.847" transform="translate(3.598 0.02)" fill="#4951e0"/>
        <path id="Path_4095" data-name="Path 4095" d="M34.279,77.356a5,5,0,0,0,3.17-4.6,4.746,4.746,0,0,0-2.224-3.836,5.058,5.058,0,0,0-4.442-.376,5.487,5.487,0,0,0-3.032,6.8c.915,2.33,4.461,2.818,6.528,2.01" transform="translate(2.519 6.263)"/>
      </g>
    </g>
  </g>
</svg>
