<svg xmlns="http://www.w3.org/2000/svg" xmlns:xlink="http://www.w3.org/1999/xlink" width="96.64" height="105.913" viewBox="0 0 96.64 105.913">
  <defs>
    <clipPath id="clip-path">
      <rect id="Rectangle_1823" data-name="Rectangle 1823" width="96.64" height="105.913" fill="none"/>
    </clipPath>
    <clipPath id="clip-path-2">
      <rect id="Rectangle_1822" data-name="Rectangle 1822" width="96.64" height="105.912" fill="none"/>
    </clipPath>
    <clipPath id="clip-path-3">
      <rect id="Rectangle_1821" data-name="Rectangle 1821" width="35.514" height="52.002" fill="none"/>
    </clipPath>
  </defs>
  <g id="Group_4298" data-name="Group 4298" clip-path="url(#clip-path)">
    <g id="Group_4297" data-name="Group 4297" transform="translate(0 0)">
      <g id="Group_4296" data-name="Group 4296" clip-path="url(#clip-path-2)">
        <path id="Path_3830" data-name="Path 3830" d="M90.807,54.635A40.486,40.486,0,1,1,50.321,14.149,40.486,40.486,0,0,1,90.807,54.635" transform="translate(1.803 2.593)" fill="#4450e6"/>
        <path id="Path_3831" data-name="Path 3831" d="M60.924,90.548a17.057,17.057,0,0,0,11.29-.852,12.985,12.985,0,0,0,6.179-6.053,30.611,30.611,0,0,0,10.114-16,19.322,19.322,0,0,0,.149-9.927c-1.158-4.053-4.1-7.406-7.513-9.878a27.806,27.806,0,0,0-19.251-5.189,24.963,24.963,0,0,0-17.185,9.882,22.651,22.651,0,0,0-3.472,19.389c1.573,5.318,5.2,9.86,9.531,13.324a26.993,26.993,0,0,0,10.157,5.3" transform="translate(7.401 7.787)" fill="#f6cb4e"/>
        <path id="Path_3832" data-name="Path 3832" d="M39.394,11.276C31.772,7.438,22.533,6.426,14.609,9.59S.452,20.412,0,28.934l5.333-8.505C2.046,27,.6,34.8,2.935,41.767S11.958,54.45,19.3,54.218c2.183-.069,4.321-.631,6.5-.816a8.9,8.9,0,0,1,6.244,1.4c2.623,2.036,2.987,5.815,4.689,8.665a11.265,11.265,0,0,0,7.547,5.1,14.389,14.389,0,0,0,9.1-1.439C59.825,63.852,63.532,56.5,63.8,49.276s-2.465-14.269-6.235-20.433c-4.454-7.28-10.547-13.728-18.168-17.567" transform="translate(0 1.413)" fill="#f6cb4e"/>
        <path id="Path_3833" data-name="Path 3833" d="M27.264,45.295a6.846,6.846,0,0,1-3.951-4.347,11.358,11.358,0,0,1,.013-4.582,9.646,9.646,0,0,0,0-4.2c-.563-1.8-2.375-3.333-4.976-4.2-.982-.328-2.025-.569-3.034-.8a26.414,26.414,0,0,1-4.124-1.2c-.136-.056-.272-.115-.407-.176a13.874,13.874,0,0,1-7.825-14.3A13.859,13.859,0,0,1,15.009,0l.133,1.326A12.658,12.658,0,0,0,4.276,11.686,12.663,12.663,0,0,0,11.7,24.737a25.075,25.075,0,0,0,3.917,1.131c1.04.24,2.115.489,3.156.838,1.768.586,4.876,2.032,5.825,5.066a10.774,10.774,0,0,1,.051,4.779A10.175,10.175,0,0,0,24.6,40.6c.73,2.707,3.727,4.152,6.313,4.178,2.886.028,5.609-1.265,8.122-2.667.43-.24.859-.485,1.287-.731a28.543,28.543,0,0,1,6.966-3.189A14.557,14.557,0,0,1,65.265,49.961l-1.315.214A13.224,13.224,0,0,0,47.62,39.483a27.505,27.505,0,0,0-6.636,3.055c-.433.247-.866.5-1.3.738-2.544,1.42-5.578,2.867-8.784,2.835a9.139,9.139,0,0,1-3.636-.816" transform="translate(0.518 0)" fill="#20175c"/>
        <path id="Path_3834" data-name="Path 3834" d="M31.913,85.683a28.917,28.917,0,0,1-1.466-17.132c.256-1.145.786-2.474,1.941-2.685,1.3-.237,2.288,1.109,2.92,2.271l3.983,7.319a61.687,61.687,0,0,1,3.822-29.671c.672-1.71,1.834-3.671,3.671-3.621a3.2,3.2,0,0,1,2.681,2.17,9.4,9.4,0,0,1,.4,3.611l-.316,15.405c.685-5.911,1.431-11.912,3.785-17.378a26.964,26.964,0,0,1,2.26-4.195c2.654-4.011,8.931-1.474,7.933,3.23a187.262,187.262,0,0,1-5.037,18.839q3.01-2.652,6.022-5.3a7.427,7.427,0,0,1,2.447-1.634,2.531,2.531,0,0,1,2.725.587c.877,1.066.33,2.66-.3,3.889A51.632,51.632,0,0,1,63.834,70a14.078,14.078,0,0,1,5.16-1.777,4.794,4.794,0,0,1,4.666,2.258c1.142,2.272-.4,4.92-1.9,6.978C68.125,82.477,64.376,87.49,59.651,91.5a30.341,30.341,0,0,1-12.575,6.632c-2.479.573-4.119.944-6.163-.639a29.011,29.011,0,0,1-4.953-4.907,28.718,28.718,0,0,1-4.048-6.9" transform="translate(5.457 7.292)" fill="#20175c"/>
        <g id="Group_4295" data-name="Group 4295" transform="translate(37.624 53.909)" style="mix-blend-mode: multiply;isolation: isolate">
          <g id="Group_4294" data-name="Group 4294">
            <g id="Group_4293" data-name="Group 4293" clip-path="url(#clip-path-3)">
              <path id="Path_3835" data-name="Path 3835" d="M67.194,72.831a.666.666,0,1,0-1.1-.754A37.781,37.781,0,0,1,49.049,85.686q2.437-6.773,4.2-13.764A20.9,20.9,0,0,0,65.286,60.985a.666.666,0,1,0-1.213-.55,19.549,19.549,0,0,1-10.424,9.9A144.758,144.758,0,0,0,57.356,46.27a.666.666,0,0,0-.619-.71.679.679,0,0,0-.711.619,144.464,144.464,0,0,1-6.851,35.035,57.58,57.58,0,0,1-3.42-33.259.666.666,0,1,0-1.3-.27,58.823,58.823,0,0,0,4.091,35.4q-1.564,4.57-3.427,9.027A26.317,26.317,0,0,1,33.128,71.93a.666.666,0,0,0-1.33.089A27.667,27.667,0,0,0,44.593,93.36c-.6,1.384-1.216,2.756-1.853,4.12a5.286,5.286,0,0,0,1.438.058Q46.5,92.5,48.448,87.3c.012,0,.021.011.033.011a.649.649,0,0,0,.233-.043A39.124,39.124,0,0,0,67.194,72.831" transform="translate(-31.796 -45.559)" fill="#bec6e3"/>
            </g>
          </g>
        </g>
        <path id="Path_3836" data-name="Path 3836" d="M41.667,75.527a1.333,1.333,0,0,0,0,2.665,1.333,1.333,0,0,0,0-2.665" transform="translate(7.401 13.843)" fill="#fff"/>
        <path id="Path_3837" data-name="Path 3837" d="M38.617,72.04a1.333,1.333,0,0,0,0,2.665,1.333,1.333,0,0,0,0-2.665" transform="translate(6.842 13.203)" fill="#fff"/>
        <path id="Path_3838" data-name="Path 3838" d="M51.767,71.022a1.333,1.333,0,0,0,0,2.665,1.333,1.333,0,0,0,0-2.665" transform="translate(9.252 13.017)" fill="#fff"/>
        <path id="Path_3839" data-name="Path 3839" d="M57.289,68.843a1.333,1.333,0,0,0,0,2.665,1.333,1.333,0,0,0,0-2.665" transform="translate(10.264 12.617)" fill="#fff"/>
        <path id="Path_3840" data-name="Path 3840" d="M46.681,64.265a1.333,1.333,0,0,0,0,2.665,1.333,1.333,0,0,0,0-2.665" transform="translate(8.32 11.778)" fill="#fff"/>
        <path id="Path_3841" data-name="Path 3841" d="M44.864,60.2a1.334,1.334,0,0,0,0,2.666,1.334,1.334,0,0,0,0-2.666" transform="translate(7.987 11.033)" fill="#fff"/>
        <path id="Path_3842" data-name="Path 3842" d="M46.458,25.7a6.987,6.987,0,0,0-.251,4.6A7.03,7.03,0,0,0,59.8,29.971a7.656,7.656,0,0,0-2.57-7.41c-1.916-1.387-5.424-1.362-7.439-.372a6.952,6.952,0,0,0-3.327,3.51" transform="translate(8.419 3.936)" fill="#fff"/>
        <path id="Path_3843" data-name="Path 3843" d="M46.458,25.7a6.987,6.987,0,0,0-.251,4.6A7.03,7.03,0,0,0,59.8,29.971a7.656,7.656,0,0,0-2.57-7.41c-1.916-1.387-5.424-1.362-7.439-.372A6.952,6.952,0,0,0,46.458,25.7Z" transform="translate(8.419 3.936)" fill="none" stroke="#020046" stroke-linecap="round" stroke-linejoin="round" stroke-width="0.5"/>
      </g>
    </g>
  </g>
</svg>
