<svg xmlns="http://www.w3.org/2000/svg" xmlns:xlink="http://www.w3.org/1999/xlink" width="113.031" height="102.071" viewBox="0 0 113.031 102.071">
  <defs>
    <clipPath id="clip-path">
      <rect id="Rectangle_1863" data-name="Rectangle 1863" width="113.031" height="102.071" fill="none"/>
    </clipPath>
    <clipPath id="clip-path-2">
      <rect id="Rectangle_1862" data-name="Rectangle 1862" width="113.031" height="102.07" fill="none"/>
    </clipPath>
    <clipPath id="clip-path-3">
      <rect id="Rectangle_1861" data-name="Rectangle 1861" width="26.584" height="35.898" fill="none"/>
    </clipPath>
  </defs>
  <g id="Group_4416" data-name="Group 4416" clip-path="url(#clip-path)">
    <g id="Group_4415" data-name="Group 4415" transform="translate(0 0)">
      <g id="Group_4414" data-name="Group 4414" clip-path="url(#clip-path-2)">
        <path id="Path_4070" data-name="Path 4070" d="M108.5,59.541A39.454,39.454,0,1,1,69.045,20.087,39.454,39.454,0,0,1,108.5,59.541" transform="translate(4.531 3.076)" fill="#4951e0"/>
        <path id="Path_4071" data-name="Path 4071" d="M72.3,31.864a11.838,11.838,0,0,0-7.631,8.452,12.547,12.547,0,1,0,24.768,3.194c.116-3.883-1.943-8.781-5.457-10.788a13.968,13.968,0,0,0-11.68-.859" transform="translate(9.856 4.743)" fill="#fff"/>
        <path id="Path_4072" data-name="Path 4072" d="M72.3,31.864a11.838,11.838,0,0,0-7.631,8.452,12.547,12.547,0,1,0,24.768,3.194c.116-3.883-1.943-8.781-5.457-10.788A13.968,13.968,0,0,0,72.3,31.864Z" transform="translate(9.856 4.743)" fill="none" stroke="#080046" stroke-linecap="round" stroke-linejoin="round" stroke-width="0.5"/>
        <path id="Path_4073" data-name="Path 4073" d="M72.167,52.877c-1.9-2.6-5.284-3.821-7.136-6.459-1.684-2.4-1.812-5.568-1.356-8.463s1.428-5.7,1.731-8.61A18.921,18.921,0,0,0,46.46,8.436a59.287,59.287,0,0,0-13.9-6.806c-6.6-2.025-14.127-2.059-20.041,1.5a23.484,23.484,0,0,0-9.37,11.783,48.158,48.158,0,0,0-2.78,15.01c-.518,9.965.556,20.407,5.793,28.9,5.415,8.781,14.962,14.63,25.094,16.567s20.764.186,30.256-3.856c3.805-1.62,7.589-3.713,10-7.071s3.1-8.248.654-11.584" transform="translate(0.038 0.038)" fill="#fff"/>
        <path id="Path_4074" data-name="Path 4074" d="M72.167,52.877c-1.9-2.6-5.284-3.821-7.136-6.459-1.684-2.4-1.812-5.568-1.356-8.463s1.428-5.7,1.731-8.61A18.921,18.921,0,0,0,46.46,8.436a59.287,59.287,0,0,0-13.9-6.806c-6.6-2.025-14.127-2.059-20.041,1.5a23.484,23.484,0,0,0-9.37,11.783,48.158,48.158,0,0,0-2.78,15.01c-.518,9.965.556,20.407,5.793,28.9,5.415,8.781,14.962,14.63,25.094,16.567s20.764.186,30.256-3.856c3.805-1.62,7.589-3.713,10-7.071S74.612,56.213,72.167,52.877Z" transform="translate(0.038 0.038)" fill="none" stroke="#080046" stroke-linecap="round" stroke-linejoin="round" stroke-width="0.5"/>
        <path id="Path_4075" data-name="Path 4075" d="M34.772,63.772c.179-2.186.974-4.489,2.8-5.707,2.458-1.643,6.151-.929,8.2-3.062,1.34-1.4,1.473-3.517,1.6-5.447s.44-4.081,1.97-5.268c1.437-1.115,3.51-1.011,5.046-1.986,1.791-1.137,2.407-3.4,3.232-5.351s2.462-4.011,4.568-3.759a3.827,3.827,0,0,1,2.983,2.972A9.931,9.931,0,0,1,65,40.6a15.251,15.251,0,0,0-.522,4.428,19.128,19.128,0,0,0,1.589,4.922A7.157,7.157,0,0,1,66.481,55c-.839,2.164-3.316,3.333-4.24,5.462-.7,1.622-.374,3.479-.484,5.242-.287,4.577-3.735,8.584-7.974,10.332-3.745,1.546-10.277,2.148-13.928-.031-3.725-2.222-5.41-8.225-5.083-12.237" transform="translate(5.319 5.08)" fill="#e9c959"/>
        <g id="Group_4413" data-name="Group 4413" transform="translate(43.418 44.603)" style="mix-blend-mode: multiply;isolation: isolate">
          <g id="Group_4412" data-name="Group 4412">
            <g id="Group_4411" data-name="Group 4411" clip-path="url(#clip-path-3)">
              <path id="Path_4076" data-name="Path 4076" d="M54.589,55.321a15.615,15.615,0,0,0,9.393-3.183.649.649,0,1,0-.791-1.03,14.311,14.311,0,0,1-8.431,2.9,79.031,79.031,0,0,0,6.248-14.481.649.649,0,1,0-1.237-.391,77.954,77.954,0,0,1-6.426,14.737,17.516,17.516,0,0,1-.867-7.746.65.65,0,0,0-.568-.722.674.674,0,0,0-.721.568,18.832,18.832,0,0,0,1.3,9.4,80.834,80.834,0,0,1-9.9,13.351,15.405,15.405,0,0,1-.7-9.494.649.649,0,0,0-1.26-.312,16.706,16.706,0,0,0,.987,10.856q-1.915,2.024-3.968,3.91a8.176,8.176,0,0,0,.933.891q2.382-2.2,4.591-4.573a14.422,14.422,0,0,0,4.226.63,14.575,14.575,0,0,0,6.3-1.422.649.649,0,0,0-.563-1.17,13.318,13.318,0,0,1-8.968.881A82.09,82.09,0,0,0,54.02,55.309c.189.008.379.012.57.012" transform="translate(-37.652 -38.68)" fill="#e9c959"/>
            </g>
          </g>
        </g>
        <path id="Path_4077" data-name="Path 4077" d="M91.513,95.272C85.777,94.94,79.131,94.22,73.345,91.4c-6.315-3.08-10.664-8.383-11.639-14.186-.639-3.811.058-8.007,2.19-13.2.607-1.476,1.285-2.946,1.938-4.368A63.838,63.838,0,0,0,68.993,51.9c1.024-3.326,1.827-8.181-.168-12.434a24.209,24.209,0,0,0-3.684-5.21,25.609,25.609,0,0,1-3.864-5.484,13.592,13.592,0,0,1,5.806-17.222l.6,1.152a12.245,12.245,0,0,0-5.233,15.517,24.266,24.266,0,0,0,3.681,5.2,25.576,25.576,0,0,1,3.87,5.5c2.17,4.629,1.323,9.824.231,13.367a64.425,64.425,0,0,1-3.218,7.9c-.648,1.41-1.319,2.868-1.915,4.32-2.038,4.963-2.709,8.933-2.111,12.5.9,5.39,4.99,10.337,10.926,13.233,5.58,2.72,12.065,3.419,17.675,3.744Z" transform="translate(9.208 1.769)"/>
        <path id="Path_4078" data-name="Path 4078" d="M44.542,19.418a5.279,5.279,0,0,0-3.348,4.857,5.012,5.012,0,0,0,2.349,4.051,5.341,5.341,0,0,0,4.691.4,5.8,5.8,0,0,0,3.2-7.182c-.966-2.461-4.712-2.976-6.895-2.123" transform="translate(6.308 2.915)"/>
        <path id="Path_4079" data-name="Path 4079" d="M46.526,30.652q-7.663-.062-15.323,0c-4.918.043-9.965-.166-14.855.4a2.678,2.678,0,0,0-2.6,2.6,2.614,2.614,0,0,0,2.6,2.6c4.889-.567,9.937-.359,14.855-.4q7.661-.067,15.323,0c3.343.028,3.346-5.167,0-5.195" transform="translate(2.106 4.689)" fill="#4951e0"/>
        <path id="Path_4080" data-name="Path 4080" d="M45.627,38.608q-14.443.8-28.914.65c-3.344-.035-3.346,5.16,0,5.195q14.464.149,28.914-.65c3.324-.185,3.346-5.381,0-5.195" transform="translate(2.175 5.911)" fill="#4951e0"/>
        <path id="Path_4081" data-name="Path 4081" d="M44.843,46.851q-13.986.6-27.983.917c-3.337.076-3.35,5.271,0,5.195q14-.315,27.983-.917c3.33-.143,3.348-5.339,0-5.195" transform="translate(2.198 7.174)" fill="#4951e0"/>
      </g>
    </g>
  </g>
</svg>
